<?xml version="1.0" encoding="utf-8"?>
<!-- Generator: Adobe Illustrator 26.3.1, SVG Export Plug-In . SVG Version: 6.00 Build 0)  -->
<svg version="1.1" id="Calque_1" xmlns="http://www.w3.org/2000/svg" xmlns:xlink="http://www.w3.org/1999/xlink" x="0px" y="0px"
	 viewBox="0 0 134.07 32.75" style="enable-background:new 0 0 134.07 32.75;" xml:space="preserve">
<style type="text/css">
	.st0{fill:#CF3C30;}
</style>
<path class="st0" d="M9.39,29.12c-0.11-0.01-0.22-0.02-0.33-0.02c-0.09,0-0.18,0.01-0.26,0c-0.63-0.1-1.27-0.07-1.9-0.12
	c-0.19-0.02-0.38-0.05-0.62-0.07c0.3-0.26,0.62-0.03,0.92-0.09c-0.15-0.2-0.35-0.1-0.51-0.13c-0.18-0.03-0.37-0.04-0.55-0.1
	c0.21-0.01,0.43-0.02,0.71-0.04c-0.08-0.07-0.1-0.11-0.13-0.11c-0.51-0.07-1.01-0.23-1.53-0.12c-0.05,0.01-0.12,0.04-0.15,0.02
	c-0.24-0.11-0.49-0.07-0.74-0.05c-0.37,0.03-0.75,0.07-1.12,0.07c-0.4,0.01-0.79-0.02-1.19-0.03c-0.28-0.01-0.55-0.03-0.83-0.02
	c-0.21,0.01-0.24-0.15-0.36-0.23c-0.07-0.04-0.09-0.13-0.15-0.21c0.04-0.02,0.09-0.05,0.15-0.07c-0.01-0.01-0.02-0.04-0.03-0.04
	c-0.11-0.01-0.22-0.02-0.36-0.04c0.08-0.14,0.16-0.15,0.26-0.1c0.1,0,0.23,0.07,0.27-0.08c-0.13-0.06-0.21,0-0.27,0.09
	c-0.06-0.05-0.13-0.1-0.19-0.15c0.26-0.06,0.55-0.13,0.86-0.2c-0.24-0.19-0.52-0.16-0.81-0.2c0.06-0.02,0.12-0.06,0.17-0.06
	c1.06-0.04,2.12-0.15,3.18-0.08c0.08,0,0.18-0.01,0.23,0.02c0.29,0.21,0.62,0.13,0.95,0.12c0.13,0,0.26-0.01,0.39-0.02
	C5.43,27,5.42,26.96,5.42,26.93c0-0.16-0.1-0.23-0.29-0.23c-0.15,0-0.3-0.03-0.46-0.07C4.77,26.6,4.88,26.57,5,26.54
	c-0.1-0.04-0.19-0.08-0.28-0.12c0.22-0.14-0.15-0.25,0.02-0.39c-0.28-0.04-0.51-0.07-0.74-0.1c0-0.02,0-0.03,0-0.05
	c0.07-0.01,0.13-0.02,0.2-0.03c-0.04-0.02-0.07-0.03-0.15-0.07c0.16-0.03,0.29-0.06,0.49-0.11c-0.15-0.03-0.24-0.04-0.36-0.06
	c0.1-0.04,0.18-0.07,0.32-0.12c-0.18-0.02-0.3-0.03-0.41-0.04c0.09-0.02,0.19-0.04,0.3-0.06c0-0.02,0-0.04,0-0.06
	c-0.09-0.01-0.18-0.03-0.34-0.05c0.35-0.07,0.28-0.35,0.48-0.49c0.09-0.06,0.14-0.16,0.2-0.24c-0.17-0.09-0.34-0.18-0.5-0.26
	c0.07-0.09,0.11-0.15,0.19-0.25c-0.2-0.05-0.35-0.08-0.47-0.11c0.05-0.05,0.18-0.12,0.17-0.16c-0.06-0.14,0.09-0.2,0.15-0.3
	c-0.21-0.13-0.48,0.05-0.64-0.09c0.49-0.13,0.98-0.26,1.47-0.39c0-0.01-0.01-0.02-0.01-0.04c-0.18,0-0.37,0.01-0.55,0
	c-0.05,0-0.1-0.05-0.15-0.07c0.04-0.04,0.08-0.12,0.13-0.12c0.18-0.02,0.36-0.02,0.59-0.04c-0.12-0.1-0.21-0.13-0.33-0.1
	c-0.09,0.02-0.19,0.03-0.29,0.03c-0.27-0.02-0.54-0.05-0.82-0.07c0.29-0.12,0.6-0.18,0.92-0.2c0.75-0.03,1.49-0.07,2.23,0.11
	c0.39,0.09,0.82,0.09,1.23,0.13c0.03,0,0.07-0.02,0.1-0.03c0.16-0.05,0.3-0.1,0.46,0.04c0.14,0.13,0.29,0.08,0.57-0.11
	c-0.16-0.1-0.29-0.23-0.52-0.13c0-0.05,0.01-0.08,0.01-0.13c-0.14,0.08-0.25,0.08-0.41,0.03c-0.21-0.07-0.45-0.08-0.68-0.08
	c-0.24-0.01-0.5-0.09-0.72,0.09c-0.02,0.02-0.06,0.01-0.1,0.01c-0.42-0.01-0.83-0.03-1.25-0.05c-0.02,0-0.03-0.02-0.08-0.05
	c0.35-0.02,0.68,0.01,1.05-0.14c-1.12-0.09-2.2-0.14-3.16-0.62c0.07-0.01,0.14-0.01,0.21-0.02c0-0.05,0.01-0.09,0.01-0.16
	c0.14,0.06,0.26,0.1,0.37,0.15c0.31,0.16,0.63,0.3,1.01,0.31c0.11,0,0.21,0.03,0.32,0.05c0.19,0.04,0.37,0.04,0.51-0.09
	c-0.07-0.07-0.13-0.15-0.2-0.21c-0.02-0.02-0.06-0.04-0.1-0.04c-0.27-0.03-0.54-0.06-0.82-0.11c0.16-0.02,0.32-0.05,0.49-0.06
	c0.17-0.01,0.34,0,0.51-0.03c-0.16-0.03-0.32-0.07-0.47-0.1c0-0.02,0-0.03,0-0.05c0.08-0.03,0.15-0.05,0.27-0.09
	c-0.35-0.14-0.71-0.24-0.89-0.55c0.17-0.19,0.44-0.24,0.69-0.28c0.31-0.04,0.63-0.05,0.94-0.09c-0.49-0.15-1.03,0.01-1.51-0.16
	c0.07-0.1,0.12-0.18,0.18-0.26c0.13-0.21,0.37-0.2,0.6-0.22c0.14-0.01,0.28-0.02,0.42-0.01c0.22,0.02,0.33-0.06,0.37-0.23
	c0.16,0.02,0.32,0.03,0.49,0.05c0.05-0.08,0.1-0.16,0.17-0.28c0.05,0.13,0.09,0.21,0.13,0.31c0.19-0.08,0.14-0.21,0.14-0.32
	c0-0.11-0.2-0.2-0.03-0.35c0.05,0.04,0.11,0.08,0.17,0.13c0.02,0.01,0.05,0.02,0.05,0.04c0.03,0.13,0.13,0.25,0.24,0.22
	c0.21-0.07,0.33,0.08,0.5,0.11c0.04,0.01,0.07,0.04,0.12,0.07c0.03-0.05,0.05-0.1,0.1-0.18c0.16,0.07,0.32,0.14,0.52,0.23
	c0.02-0.02,0.09-0.06,0.12-0.12c0.05-0.08-0.22,0.01-0.1-0.13c0.09-0.1-0.05-0.12-0.09-0.18c-0.04-0.06,0.01-0.14-0.12-0.17
	c-0.08-0.02-0.12-0.13-0.19-0.21c0.1,0,0.2,0,0.33,0c-0.05-0.05-0.08-0.07-0.11-0.1c0.05-0.01,0.1-0.02,0.18-0.04
	c-0.15-0.04-0.29-0.08-0.42-0.12c0-0.02,0-0.04,0-0.06c0.2-0.03,0.39-0.07,0.61-0.11c0.01-0.07,0.02-0.15,0.03-0.23
	c-0.2-0.13-0.17,0.09-0.29,0.13c-0.02-0.07-0.04-0.14-0.07-0.22c0.12,0.01,0.23,0.02,0.34,0.03c-0.08-0.19-0.14-0.35-0.22-0.54
	c-0.38,0.19-0.76,0.17-1.13,0.16c-0.72-0.01-1.44-0.05-2.16-0.08c-0.03,0-0.05-0.02-0.13-0.05c0.26-0.04,0.49,0,0.68-0.15
	c-0.25-0.06-0.47-0.12-0.73-0.18c0.13-0.01,0.24-0.03,0.34-0.04c0-0.01,0-0.02,0-0.02c-0.12-0.01-0.24-0.02-0.37-0.03
	c0.04-0.16,0.18-0.08,0.3-0.12c-0.05-0.02-0.08-0.04-0.11-0.05c0.24-0.36,0.25-0.37,0.72-0.38c0.72-0.01,1.43,0,2.15,0
	c0-0.01,0.03-0.02,0.02-0.03c-0.07-0.3-0.13-0.6-0.2-0.9c-0.08-0.32-0.01-0.58,0.33-0.76c0.03-0.02,0.05-0.05,0.09-0.09
	c-0.17,0.03-0.32,0.06-0.47,0.09c-0.1-0.21-0.15-0.64-0.11-0.99c0.15-0.02,0.24,0.05,0.31,0.15c0.09,0.16,0.22,0.19,0.41,0.13
	c-0.18,0.15-0.18,0.15-0.17,0.28c0.1-0.09,0.2-0.15,0.17-0.28c0.12-0.01,0.24-0.01,0.37-0.02c0.07-0.18-0.03-0.33-0.06-0.49
	C9.09,13.26,9,13.24,8.97,13.22c0.03-0.04,0.06-0.09,0.12-0.17c-0.42-0.01-0.67,0.23-1,0.29c-0.07-0.06-0.16-0.12-0.24-0.19
	c0.04-0.01,0.09-0.02,0.16-0.04c0-0.26,0-0.51,0-0.77c-0.07-0.01-0.12-0.02-0.18-0.02c0.15-0.07,0.19-0.16,0.19-0.3
	c-0.01-0.22,0.07-0.45,0.02-0.69c-0.1-0.07-0.23-0.14-0.36-0.23c-0.07,0.03-0.15,0.06-0.22,0.09c-0.16-0.38-0.11-0.75-0.11-1.12
	c0-0.37-0.05-0.74,0.16-1.09c0.2,0.16,0.23,0.38,0.26,0.6C7.8,9.76,7.95,9.82,8.09,9.73C8.14,9.7,8.17,9.64,8.18,9.59
	C8.2,9.49,8.2,9.38,8.21,9.28C8.23,9.09,8.25,8.9,8.29,8.7c0.01-0.04,0.06-0.07,0.09-0.1C8.4,8.58,8.43,8.55,8.42,8.54
	C8.27,8.27,8.44,8.02,8.49,7.73c0.16,0,0.32,0,0.48,0c0.16,0,0.32-0.02,0.48-0.06c0.18-0.05,0.41,0.02,0.61,0.03
	c0.33,0.01,0.66,0.02,0.99,0.03c0.13,0,0.17-0.09,0.17-0.17c0-0.09-0.07-0.16-0.2-0.15c-0.08,0.01-0.16,0.03-0.23,0.02
	c-0.06-0.01-0.12-0.05-0.25-0.11c0.15-0.03,0.22-0.05,0.29-0.07c-0.28-0.04-0.53-0.06-0.78,0.11C9.81,7.56,9.49,7.56,9.18,7.5
	C9.15,7.49,9.11,7.48,9.09,7.46c-0.1-0.14-0.17-0.24-0.26,0.01C8.81,7.54,8.62,7.56,8.46,7.61c0.03-0.26-0.05-0.49,0.2-0.65
	C8.62,6.91,8.59,6.85,8.54,6.77C8.68,6.74,8.78,6.73,8.9,6.7C8.83,6.66,8.78,6.62,8.72,6.58c0.25-0.27,0.6-0.01,0.93-0.14
	C9.3,6.31,9.01,6.19,8.69,6.07c0.08-0.39,0.16-0.8,0.25-1.21C8.97,4.7,9.13,4.62,9.27,4.69c0.36,0.2,0.71,0.41,1.05,0.64
	C9.91,5.27,9.51,5.1,9.08,5.34C9.26,5.48,9.43,5.61,9.55,5.7c0.24-0.04,0.43-0.08,0.62-0.1c0.28-0.03,0.57-0.05,0.86-0.09
	c0.27-0.04,0.53-0.1,0.77,0.18c-0.07,0.02-0.16,0.05-0.26,0.09C11.78,6,11.98,6.08,12.27,6c0.14-0.04,0.3-0.02,0.42-0.02
	c0.14-0.1,0.26-0.19,0.41-0.3c-0.22-0.07-0.44-0.13-0.65-0.2c0-0.01,0-0.03,0-0.04c0.08-0.01,0.15-0.03,0.23-0.03
	c1.1-0.01,2.19,0.1,3.28,0.22c0.17,0.02,0.35,0.02,0.53,0.01c0.13-0.01,0.23-0.06,0.18-0.2c0.25,0.02,0.48,0.04,0.75,0.07
	c-0.16,0.07-0.28,0.12-0.41,0.17c0.04,0.05,0.07,0.1,0.11,0.14c-0.03,0.01-0.04,0.02-0.06,0.02c-0.24,0-0.48-0.03-0.72,0
	c-0.12,0.01-0.22,0.12-0.36,0.2c0.11,0.07,0.2,0.13,0.28,0.19c0,0.03,0.01,0.06,0.01,0.08c-0.01,0.1-0.04,0.22,0.14,0.23
	c0.17,0.01,0.27-0.09,0.28-0.26c0-0.04,0.01-0.07,0.02-0.11c0.19-0.08,0.4-0.08,0.58-0.2c0.08-0.05,0.33-0.01,0.42,0.06
	c0.24,0.19,0.43,0.14,0.66-0.04c-0.25-0.19-0.55-0.11-0.82-0.14c0.41,0.07,0.82-0.11,1.24,0.02c0.11,0.03,0.26-0.02,0.38-0.04
	c0.32-0.04,0.66,0.09,0.96-0.09c0.12,0.1,0.27,0.06,0.41,0.05c0.4-0.05,0.81-0.1,1.23-0.15c0,0.07,0,0.15,0,0.25
	c0.13,0.01,0.25,0.04,0.18-0.12l0,0c0.28,0.18,0.58,0.05,0.87,0.03c0.12,0.13,0.12,0.13,0.33,0.07c-0.01-0.03-0.03-0.07-0.04-0.11
	c0.11-0.03,0.22-0.06,0.36-0.1c-0.11-0.21-0.12-0.44-0.3-0.6c-0.13,0.04-0.24,0.08-0.4,0.13c0.11-0.21,0.43-0.18,0.43-0.42
	c0-0.18,0.1-0.37-0.1-0.55c-0.06,0.02-0.15,0.03-0.22,0.06c-0.15,0.07-0.26,0.03-0.33-0.09c-0.09-0.14-0.21-0.23-0.42-0.23
	c-0.06,0-0.15-0.07-0.19-0.13c-0.19-0.25-0.13-0.52-0.06-0.79c0.14-0.03,0.24-0.11,0.42-0.08c0.22,0.04,0.38-0.18,0.33-0.37
	c-0.01-0.03-0.02-0.07,0.01-0.12c0.07,0.14,0.15,0.27,0.23,0.42c0.06-0.05,0.1-0.11,0.15-0.14c0.16-0.09,0.34-0.16,0.49-0.26
	c0.05-0.03,0.07-0.13,0.07-0.19c0-0.08-0.04-0.15-0.02-0.24c0.09,0.16,0.2,0.31,0.26,0.47c0.05,0.15,0.05,0.32,0.08,0.53
	C24,3,24.1,2.97,24.23,2.93c0.29,0.21,0.41,0.51,0.48,0.83c0.03,0.16,0.04,0.32,0.03,0.47c-0.02,0.31,0.23,0.45,0.55,0.62
	c-0.03-0.11-0.05-0.15-0.07-0.23c0.1-0.04,0.2-0.08,0.3-0.13L25.51,4.5c0.02,0.03,0.04,0.08,0.07,0.09
	c0.12,0.02,0.14,0.09,0.13,0.16c-0.01,0.07-0.06,0.12-0.19,0.12c-0.12,0-0.23,0.05-0.36,0.09c0.04,0.12,0.08,0.22,0.11,0.32
	c0.09-0.01,0.16,0,0.21-0.03c0.12-0.06,0.24-0.08,0.38-0.06c0.14,0.02,0.27,0,0.29-0.16c0-0.03,0.01-0.07,0.03-0.08
	c0.29-0.1,0.21-0.29,0.16-0.47c-0.02-0.1-0.01-0.21,0.01-0.31c0.03-0.14,0.09-0.27,0.14-0.41c0.14,0,0.28,0,0.42,0
	c0.05-0.13,0.11-0.24,0.14-0.35c0.02-0.09,0-0.18-0.01-0.27c0-0.03-0.07-0.07-0.06-0.1c0.15-0.36-0.22-0.56-0.35-0.84
	c-0.09-0.19-0.22-0.36-0.24-0.57c0-0.03-0.04-0.07-0.08-0.15c-0.1,0.13-0.19,0.23-0.28,0.35c-0.02-0.05-0.06-0.13-0.05-0.13
	c0.2-0.1,0.27-0.28,0.4-0.43c0.08-0.1,0.11-0.19-0.01-0.32c0.24,0.08,0.18-0.12,0.3-0.16c0.05,0.06,0.1,0.12,0.16,0.2
	c0.22-0.07,0.45,0.2,0.69-0.05c0.08,0.18,0.11,0.31,0.03,0.49c-0.17,0.42-0.39,0.83-0.33,1.31c0.13,0.02,0.26,0.03,0.37,0.05
	c0.14-0.13,0.27-0.24,0.37-0.37c0.06-0.08,0.07-0.19,0.11-0.28c0,0-0.01,0.01-0.01,0.01c0.2,0.04,0.27,0.16,0.28,0.33
	c0.01,0.28,0.03,0.56,0.08,0.85c0.05-0.28,0.41-0.19,0.54-0.38c0.13,0.16,0.26,0.31,0.39,0.48c0.2-0.27,0.26-0.58,0.65-0.77
	c0.17,0.7,0.33,1.37,0.5,2.05c0.22,0.01,0.44,0.02,0.66,0.03c0.02,0.01,0.03,0.03,0.05,0.04c-0.04,0.02-0.11,0.03-0.13,0.07
	c-0.02,0.04,0,0.1,0.06,0.17c0.07-0.09,0.14-0.18,0.23-0.29c0.28,0,0.59-0.03,0.9,0.01c0.25,0.03,0.48,0,0.72,0
	c0.25,0,0.51,0.01,0.76,0.02c0.25,0.01,0.51,0.01,0.76,0.02c0.17,0.01,0.36-0.05,0.51,0.07c0.02,0.01,0.07,0.01,0.09,0
	c0.2-0.11,0.41-0.05,0.62-0.05c0.35,0,0.71,0,1.06,0.04c0.11,0.01,0.16-0.11,0.29-0.03c0.09,0.06,0.26,0.03,0.39,0.03
	c0.12,0.01,0.24,0.02,0.36,0.01c0.22-0.03,0.37,0.06,0.52,0.17c0.22,0.16,0.24,0.15,0.56-0.03c-0.19-0.03-0.32-0.04-0.5-0.07
	c0.15-0.08,0.39,0.03,0.35-0.21c0.01,0.11,0.03,0.18,0.17,0.18c0.42,0,0.84,0.01,1.26,0.01c0.67,0,1.34-0.03,2.01,0.01
	c0.21,0.01,0.41,0,0.61-0.01c0.1,0,0.19,0.02,0.29,0.02c0.05,0,0.12,0.02,0.16,0c0.32-0.13,0.65-0.08,0.98-0.09
	c0.37-0.01,0.73-0.01,1.1-0.02c0.07,0,0.14,0.01,0.24,0.07c-0.12,0.06-0.25,0.12-0.36,0.18c0.11,0.13,0.21,0.25,0.33,0.38
	c0.17-0.01,0.39,0.16,0.52-0.1c-0.09-0.01-0.18-0.02-0.29-0.02c0.03-0.02,0.03-0.03,0.05-0.03c0.13-0.01,0.27-0.01,0.39-0.05
	c0.07-0.02,0.11-0.1,0.17-0.15C46.29,5.05,46.22,5,46.14,5c-0.15,0.01-0.31,0.04-0.45-0.06c0.15-0.14,0.33-0.2,0.54-0.23
	c0.2-0.03,0.4-0.05,0.58-0.11c0.37-0.12,0.74-0.06,1.12,0c-0.08,0.14-0.15,0.26-0.25,0.42c-0.12,0.09-0.39,0.06-0.5,0.28
	c0.41,0.07,0.79,0.16,1.11-0.12c-0.01-0.02-0.03-0.05-0.04-0.07c-0.15-0.22-0.04-0.44,0.25-0.46c0.23-0.02,0.47-0.02,0.69,0.03
	c0.21,0.05,0.41,0.05,0.62,0.01c0.11-0.02,0.22-0.03,0.33-0.05c0.17-0.14,0.19-0.4,0.5-0.44c0.15-0.02,0.27-0.03,0.41,0.08
	c-0.01,0.07-0.02,0.15-0.03,0.23c0.03,0.01,0.06,0.02,0.09,0.02c0.08-0.01,0.15-0.02,0.23-0.03c0.3-0.05,0.59-0.08,0.86,0.08
	c0.05,0.03,0.14,0.02,0.25,0.03c-0.01-0.09-0.02-0.16-0.03-0.24c0.36-0.07,0.72-0.13,1.07-0.21c0.11-0.02,0.31,0.03,0.29-0.17
	c0-0.01,0.11-0.05,0.18-0.06c0.5-0.07,1-0.14,1.51-0.2c0.13-0.01,0.26,0.02,0.45,0.04c-0.1,0.07-0.15,0.12-0.21,0.15
	c-0.26,0.1-0.27,0.14-0.13,0.35c0.03,0.05,0.05,0.1,0.08,0.16c0.07,0,0.16,0,0.27,0c0.04-0.11,0.09-0.22,0.14-0.34
	c0.25,0.07,0.49,0.17,0.74,0.21c0.25,0.04,0.51,0.01,0.83,0.01C57.5,4.2,57.4,4.15,57.28,4.07c0.37-0.21,0.76-0.27,1.18-0.2
	c0.06,0.01,0.12,0.04,0.19,0.05c0.41,0.01,0.82,0.01,1.23,0.02c0.02,0,0.03-0.02,0.07-0.04c-0.06-0.03-0.12-0.06-0.18-0.09
	c0.03-0.09,0.26-0.08,0.36,0c0.04,0.03,0.07,0.07,0.11,0.11c0.12-0.07,0.23-0.13,0.33-0.19c-0.16,0.24,0.18,0.36,0.15,0.55
	c-0.05,0.05-0.1,0.12-0.17,0.2c0.16,0.05,0.28,0.09,0.42,0.14c0.02-0.07,0.05-0.15,0.07-0.23c0.01-0.03,0.02-0.07,0.03-0.08
	c0.32-0.05,0.37-0.45,0.76-0.41c0.08,0.01,0.17-0.02,0.28-0.03c0,0.07,0,0.12,0,0.18c0.35,0.05,0.35,0.05,0.48-0.2
	c0.25,0.18,0.51,0.11,0.77,0.04C63.6,3.83,63.82,3.74,64,3.92c0.21-0.11,0.1-0.21,0.04-0.33c0.49,0.05,0.94-0.08,1.38-0.22
	c1.03-0.31,2.08-0.34,3.14-0.16c0.16,0.03,0.33,0.01,0.49-0.01c0.39-0.05,0.78-0.12,1.17-0.19c0.2-0.03,0.39-0.04,0.53,0.12
	c0.02,0.03,0.07,0.04,0.12,0.07c0.07-0.13,0.14-0.24,0.19-0.33c0.27,0.14,0.52,0.28,0.81,0.43c-0.01,0.09-0.02,0.22-0.03,0.37
	c-0.18,0.1-0.36,0.21-0.34,0.44c0.01,0.06-0.1,0.12-0.14,0.18c-0.09,0.17,0,0.3,0.22,0.29c0.15-0.01,0.25,0.02,0.34,0.12
	c0.1,0.11,0.25,0.15,0.42,0.12c0.18-0.03,0.35-0.04,0.55,0.01c0.25,0.05,0.51-0.04,0.7-0.18c0.08-0.06,0.08-0.2,0.12-0.32
	c-0.25-0.04-0.46-0.08-0.62,0.11c-0.08,0.1-0.2,0.14-0.36,0.1c0.01-0.15,0.03-0.31,0.05-0.49c-0.37,0.02-0.68,0.26-1.08,0.26
	c0.02-0.14,0.04-0.27,0.06-0.41c0.13-0.07,0.27-0.14,0.41-0.21c-0.03-0.07-0.21-0.14-0.01-0.22c0.03-0.01,0.01-0.09,0.02-0.16
	c0.37,0.02,0.76,0.06,0.97,0.43c0.41-0.16,0.88,0.08,1.3-0.16c-0.02-0.04-0.04-0.08-0.07-0.12c-0.03-0.04-0.07-0.07-0.1-0.11
	c0.08-0.06,0.14-0.1,0.21-0.15c0.14,0.05,0.28,0.1,0.39,0.13c0.19-0.09,0.36-0.17,0.57-0.27c0.01-0.02,0.03-0.09,0.06-0.17
	c0.41,0,0.8-0.01,1.2,0c0.23,0,0.29,0.08,0.34,0.3c0.18,0.03,0.34,0.06,0.5,0.07c0.17,0.01,0.35-0.01,0.55-0.02
	c-0.02-0.12-0.04-0.22-0.06-0.34c0.1,0.01,0.21,0.02,0.32,0.04c0.02,0,0.05,0.04,0.07,0.03c0.41-0.14,0.83-0.03,1.25-0.03
	c0.62,0,1.24,0.02,1.86,0.04c0.14,0,0.27-0.01,0.39,0.11c0.07,0.07,0.23,0.07,0.35,0.1c0.01-0.02,0.02-0.04,0.03-0.06
	c-0.07-0.03-0.13-0.06-0.27-0.13c0.18,0,0.29,0,0.39,0c1.08,0.04,2.17,0.07,3.25,0.11c0.12,0,0.24,0.05,0.3,0.07
	c0.25-0.02,0.44-0.05,0.63-0.04c0.58,0.02,1.15,0.05,1.74,0.07c0.01,0.08,0.02,0.15,0.03,0.23c0.24-0.02,0.5,0.04,0.63-0.2
	c0.27,0.02,0.54,0.03,0.83,0.05c-0.08,0.11-0.15,0.22-0.01,0.32c0.11,0.09,0.23,0.14,0.39,0.11c0.23-0.04,0.45-0.08,0.71-0.13
	c-0.07-0.08-0.13-0.15-0.19-0.22c0.16-0.11,0.32-0.07,0.48-0.05c0.23,0.03,0.46,0.05,0.62-0.15c0.26,0.22,0.52,0.29,0.85,0.18
	c0.13-0.04,0.31-0.02,0.46-0.01c0.45,0.04,0.89,0.11,1.3,0.29c0.09,0.04,0.21,0.05,0.32,0.05c0.15,0.01,0.31,0,0.46-0.01
	c0.14,0,0.25,0.01,0.35,0.11c0.11,0.11,0.23,0.1,0.32-0.02c0.08-0.11,0.14-0.23,0.2-0.35c0,0,0,0,0,0c0.07,0.15,0.24,0.14,0.38,0.18
	c0.18,0.05,0.62,0.27,0.73,0.39c0.11-0.02,0.22-0.05,0.36-0.07c-0.06-0.32-0.43-0.24-0.65-0.39c0.01-0.13,0.03-0.28,0.04-0.44
	c0.1-0.01,0.16-0.01,0.23-0.01c1.09,0,2.17,0,3.26,0c0.26,0,0.51,0.04,0.78,0c0.19-0.03,0.38-0.01,0.58,0.1
	c0.19,0.11,0.51,0.14,0.73,0.08c0.3-0.08,0.55,0.09,0.83,0.04c0.03-0.01,0.08,0.03,0.1,0.06c0.15,0.17,0.35,0.17,0.57,0.13
	c0.25-0.04,0.5-0.08,0.75-0.09c0.41-0.01,0.46,0.07,0.27,0.36c0.31,0.03,0.4-0.01,0.5-0.28c-0.06-0.05-0.13-0.1-0.24-0.19
	c0.63-0.08,1.21-0.09,1.85-0.12c-0.13,0.21-0.32,0.13-0.45,0.21c0.01,0.03,0.02,0.08,0.03,0.14c0.01,0.12,0.06,0.24,0.23,0.22
	c0.1-0.01,0.19-0.1,0.28-0.16c0.07-0.05-0.02-0.16,0.12-0.2c0.22-0.06,0.43-0.17,0.66-0.23c0.14-0.04,0.31-0.02,0.46-0.03
	c0.15-0.01,0.31-0.02,0.47-0.03c0.01,0.04,0.01,0.08,0.02,0.16c1.09,0,2.18,0,3.27,0c0.03,0.1,0.05,0.17,0.06,0.24
	c-0.24,0.05-0.49-0.05-0.78,0.08c0.14,0.03,0.23,0.06,0.32,0.07c0.13,0.02,0.24,0.04,0.29,0.18c0.04,0.12,0.2,0.16,0.36,0.17
	c0.21,0.01,0.42,0.02,0.62,0.06c0.17,0.03,0.33,0.1,0.48,0.18c0.11,0.06,0.19,0.08,0.3,0.04c0.11-0.04,0.23-0.06,0.35-0.09
	c0.1-0.02,0.18-0.07,0.18-0.19c-0.22-0.01-0.44,0.15-0.63,0c-0.07-0.05-0.1-0.13-0.16-0.21c0.3-0.09,0.55-0.17,0.81-0.25
	c0.11-0.03,0.23-0.08,0.3,0.02c0.04,0.06-0.01,0.15-0.02,0.23c0,0.03-0.02,0.05-0.03,0.09c0.32-0.07,0.64-0.14,0.96-0.2
	c-0.01-0.23-0.24-0.3-0.49-0.35c-0.1-0.02-0.2-0.05-0.31-0.08c-0.05,0.16-0.16,0.11-0.29-0.02c0.13-0.07,0.25-0.14,0.39-0.2
	c0.07-0.03,0.17-0.03,0.25-0.02c0.32,0.03,0.63,0.09,0.95,0.12c0.43,0.04,0.86,0.07,1.29,0.1c0.02,0,0.04,0.01,0.06,0.01
	c0.25,0.01,0.33-0.08,0.28-0.29c0.34,0,0.68,0,1.02,0c0.34-0.01,0.69-0.05,0.97,0.03c0.1,0.14,0.18,0.24,0.27,0.35
	c0.76-0.15,1.5-0.3,2.24-0.43c0.38-0.07,0.77-0.05,1.15,0.06c0.04,0.16-0.07,0.24-0.2,0.29c-0.13,0.05-0.26,0.07-0.4-0.02
	c-0.1-0.07-0.25-0.12-0.38-0.13c-0.09-0.01-0.18,0.05-0.32,0.1c0.16,0.15,0.26,0.29,0.4,0.38c0.25,0.16,0.65,0.17,1.01-0.15
	c0.16-0.14,0.38-0.26,0.6-0.33c0.31-0.11,0.65-0.18,0.98-0.26c0.1-0.02,0.22-0.03,0.32-0.02c0.16,0.02,0.29,0.1,0.28,0.26
	c0,0.15,0.08,0.25,0.27,0.29c0.43-0.37,0.91-0.14,1.39-0.07c-0.21,0.03-0.42,0.04-0.63,0.08c-0.15,0.03-0.3,0.06-0.44,0.12
	c-0.09,0.04-0.16,0.13-0.29,0.25c0.34,0.01,0.58,0.06,0.71,0.27c-0.23-0.14-0.47-0.08-0.69,0c-0.2,0.08-0.39,0.07-0.58,0.01
	c-0.27-0.08-0.53-0.17-0.8-0.24c-0.09-0.02-0.19-0.02-0.28-0.02c-0.01,0.02-0.01,0.03-0.02,0.05c0.1,0.06,0.2,0.12,0.32,0.18
	c-0.03,0.04-0.06,0.09-0.08,0.11c0.08,0.15,0.16,0.29,0.24,0.43c0.45,0.07,0.48,0.06,0.53-0.2c-0.08-0.02-0.15-0.04-0.25-0.06
	c0.26-0.13,0.27-0.13,0.42-0.03c0.04,0.03,0.08,0.07,0.13,0.07c0.32,0.01,0.63,0,0.91,0c0.11-0.12-0.06-0.27,0.14-0.32
	c0.09,0.01,0.17,0.02,0.26,0.02c0.11,0,0.22-0.05,0.27,0.09c0.01,0.02,0.09,0.04,0.14,0.04c0.27-0.01,0.42,0.15,0.64,0.3
	c-0.34,0.05-0.58,0.01-0.77-0.19c-0.2,0.06-0.33,0.16-0.43,0.3c-0.06,0.08-0.18,0.12-0.29,0.19c0.08,0.03,0.15,0.07,0.23,0.08
	c0.15,0.02,0.27,0.06,0.38,0.15c0.05,0.05,0.17,0.04,0.23,0.05c0.07,0.14,0.13,0.29,0.21,0.43c0.12,0.22,0.26,0.43,0.35,0.66
	c0.06,0.16,0.26,0.32,0.09,0.51c0.23,0.12,0.19,0.34,0.24,0.52c0.06,0.18,0.08,0.37,0.11,0.55c0.03,0.18,0.06,0.37,0.09,0.57
	c-0.15,0.01-0.27,0.02-0.4,0.03c0,0.02-0.01,0.03-0.01,0.05c0.14,0.03,0.27,0.06,0.44,0.09c0.03,0.39,0.06,0.79,0.09,1.18
	c-0.28,0.15-0.53,0.28-0.84,0.45c0.16,0.03,0.25,0.04,0.34,0.05c0.02,0.02,0.03,0.04,0.05,0.06c-0.09,0.04-0.19,0.09-0.31,0.14
	c0.25,0.15,0.49,0.1,0.72,0.18c0,0.41,0,0.84,0,1.28c0.37-0.02,0.69,0.05,1.04,0.25c-0.39,0.02-0.7-0.06-1.01-0.14
	c-0.1,0.12-0.03,0.17,0.1,0.19c0.42,0.07,0.85,0.14,1.27,0.2c0.07,0.01,0.15,0.03,0.22,0.08c-0.07,0.01-0.17,0.05-0.22,0.02
	c-0.28-0.14-0.6,0.02-0.87-0.1c-0.02-0.01-0.04-0.01-0.06-0.01c-0.24,0.01-0.32-0.01-0.49-0.13c-0.02,0.25-0.04,0.47-0.06,0.7
	c0.1,0.03,0.18,0.06,0.32,0.11c-0.13,0.05-0.21,0.08-0.29,0.11c0.15,0.06,0.3,0.12,0.46,0.19c0.21,0.09,0.43,0.14,0.67,0.09
	c0.06-0.01,0.14-0.02,0.2-0.01c0.24,0.06,0.47,0.13,0.74,0.21c-0.1,0.09-0.26,0.14-0.18,0.29c0.05,0.1,0.05,0.21,0.08,0.33
	c-0.12,0.02-0.19,0.03-0.31,0.04c0.19,0.08,0.38,0.14,0.28,0.34c0.06,0.02,0.1,0.06,0.14,0.05c0.32-0.07,0.54,0.19,0.85,0.17
	c0.02,0,0.04,0.02,0.05,0.03c0.11,0.21,0.32,0.23,0.55,0.22c0.06,0,0.12,0.04,0.18,0.07c-0.16,0.11-0.3,0.22-0.46,0.32
	c-0.08,0.05-0.16,0.1-0.29,0.09c-0.26-0.02-0.53,0.01-0.79,0.02c-0.11,0-0.23,0.01-0.34,0.02c0,0.02,0,0.04-0.01,0.07
	c0.08,0.02,0.15,0.04,0.23,0.05c0.36,0.03,0.72,0.05,1.09,0.07c0.29,0.02,0.58,0.01,0.86,0.08c0.09,0.02,0.17,0.05,0.24,0.12
	c-0.07,0.01-0.14,0.04-0.21,0.03c-0.3-0.01-0.59-0.04-0.89-0.06c-0.15-0.01-0.3-0.01-0.45-0.02c-0.06,0-0.12-0.03-0.18-0.04
	c-0.06-0.01-0.14-0.05-0.19-0.03c-0.22,0.11-0.44,0.06-0.71,0.01c0.13,0.18,0.27,0.25,0.48,0.24c0.23-0.01,0.46,0,0.69,0.01
	c0.28,0.02,0.57,0.05,0.85,0.08c0.08,0.01,0.17,0.04,0.32,0.08c-0.46,0.18-0.9,0.08-1.38,0.15c0.26,0.16,0.5,0.25,0.74,0.25
	c0.35,0,0.58,0.19,0.88,0.28c-0.08,0.2-0.3,0.09-0.45,0.18c-0.01,0.05-0.02,0.12-0.04,0.21c-0.13-0.02-0.24-0.05-0.37-0.07
	c0.02,0.14,0.15,0.11,0.22,0.12c0.26,0.04,0.52,0.07,0.77,0.11c0.05,0.01,0.09,0.08,0.19,0.16c-0.14-0.01-0.2-0.01-0.26-0.01
	c-0.27,0.02-0.54-0.06-0.81,0.06c-0.12,0.05-0.28,0.01-0.43,0.01c-0.11,0-0.23,0.01-0.34,0.02c0,0.02,0,0.04,0,0.06
	c0.12,0.02,0.24,0.04,0.39,0.07c-0.07,0.07-0.12,0.12-0.18,0.18c0.09,0,0.16,0,0.25,0c-0.07,0.16,0.06,0.16,0.18,0.19
	c0.24,0.05,0.48,0.12,0.68,0.17c0.04,0.19,0.07,0.33,0.11,0.49c-0.29,0.06-0.6,0.13-0.91,0.2c0.03,0.1,0.05,0.15,0.07,0.21
	c-0.46,0.06-0.9,0.12-1.41,0.19c0.12,0.04,0.17,0.08,0.22,0.08c0.2,0.01,0.4,0.01,0.6,0c0.19,0,0.37-0.02,0.52,0.11
	c0.05,0.05,0.18,0.03,0.28,0.04c0.36,0.02,0.72,0.04,1.08,0.06c0.02,0,0.03,0.03,0.06,0.06c-0.04,0.08-0.08,0.16-0.14,0.29
	c0.28-0.04,0.52-0.06,0.73,0.12c-0.06,0.02-0.09,0.05-0.13,0.05c-0.29,0-0.59,0-0.88,0.01c-0.17,0.01-0.35,0.05-0.52,0.09
	c-0.04,0.01-0.09,0.07-0.09,0.1c0,0.04,0.04,0.09,0.08,0.11c0.09,0.03,0.19,0.05,0.29,0.06c0.18,0.02,0.37-0.01,0.53,0.11
	c0.04,0.03,0.17,0,0.24-0.04c0.14-0.07,0.26-0.09,0.42-0.02c0,0.1,0,0.21,0,0.34c-0.3-0.12-0.6-0.19-0.88,0.03l0.01-0.01
	c-0.22,0-0.44-0.01-0.66,0c-0.13,0-0.16,0.09-0.1,0.24c-0.26,0.03-0.26,0.03-0.28-0.19c-0.04-0.01-0.09-0.01-0.13-0.02
	c-0.03,0-0.07,0-0.12,0.01c-0.01,0.08-0.02,0.15-0.04,0.27c-0.15-0.05-0.35-0.06-0.39-0.13c-0.11-0.21-0.24-0.14-0.39-0.08
	c-0.08,0.12,0.08,0.3-0.15,0.39c-0.04-0.03-0.09-0.05-0.12-0.08c-0.1-0.13-0.24-0.17-0.4-0.14c-0.17,0.03-0.33,0.02-0.48-0.06
	c-0.18-0.1-0.35,0.05-0.53-0.02c0,0.2,0.14,0.26,0.32,0.29c0.1,0.02,0.18,0.07,0.14,0.15c-0.02,0.05-0.1,0.1-0.16,0.11
	c-0.18,0.04-0.37,0.05-0.56,0.08c-0.07,0.01-0.14,0.03-0.23,0.05c0.06,0.06,0.11,0.1,0.14,0.13c-0.11,0.08-0.22,0.16-0.33,0.24
	c-0.02,0.01-0.07-0.02-0.15-0.05c0.09-0.05,0.15-0.08,0.27-0.15c-0.12-0.02-0.17-0.03-0.23-0.04c-0.05-0.01-0.1-0.01-0.13-0.04
	c-0.17-0.13-0.2-0.13-0.36-0.02c-0.05,0.04-0.12,0.06-0.22,0.1c0.14,0.05,0.25,0.09,0.45,0.17c-0.13,0-0.2,0-0.26,0
	c-0.19,0-0.38-0.03-0.57,0.05c-0.12,0.05-0.31,0.05-0.45,0.01c-0.17-0.05-0.28-0.02-0.39,0.08c0.02,0.02,0.03,0.05,0.04,0.05
	c0.3,0.02,0.61,0.04,0.91,0.06c0.33,0.02,0.66,0.03,0.99,0.06c0.07,0.01,0.13,0.08,0.23,0.15c-0.21,0.03-0.38,0.05-0.56,0.08
	c0.1,0.17,0.26,0.23,0.48,0.2c0.19-0.02,0.39-0.04,0.58-0.04c0.12,0,0.24,0.05,0.36,0.09c0.03,0.01,0.05,0.07,0.04,0.09
	c-0.01,0.03-0.08,0.07-0.1,0.06c-0.3-0.12-0.6,0.1-0.9-0.01c-0.06-0.02-0.15,0-0.22,0.01c-0.09,0.01-0.19,0.05-0.26,0.02
	c-0.3-0.09-0.58,0.04-0.87,0.04c-0.09,0-0.18,0.08-0.29,0.14c-0.43-0.1-0.88-0.14-1.35-0.03c0.09,0.03,0.17,0.07,0.25,0.1
	c-0.01,0.11-0.01,0.22-0.02,0.33c0.03,0.01,0.09,0.04,0.14,0.03c0.33-0.02,0.62,0.1,0.93,0.14c0.07,0.01,0.14-0.01,0.21-0.03
	c0.17-0.04,0.33-0.08,0.51,0.02c0.07,0.04,0.19,0.04,0.28,0.02c0.31-0.07,0.31-0.07,0.64,0.12c-0.09,0.03-0.17,0.06-0.25,0.08
	c0.01,0.02,0.02,0.04,0.04,0.07c0.25,0,0.48,0.03,0.63,0.27c0.13-0.3,0.4-0.22,0.64-0.25c-0.02-0.05-0.03-0.1-0.05-0.16
	c0.09,0,0.18-0.01,0.27,0c0.05,0.01,0.13,0.05,0.13,0.07c-0.06,0.24,0.14,0.14,0.26,0.15c0.08,0.01,0.16,0,0.25,0.03
	c-0.35,0.21-0.74-0.04-1.11,0.05c0,0.07,0.02,0.16-0.02,0.18c-0.06,0.04-0.17,0.05-0.24,0.04c-0.25-0.04-0.47,0-0.7,0.1
	c-0.18,0.07-0.4,0.07-0.61,0.1c-0.07,0.01-0.15,0.02-0.22,0.07c0.21,0.02,0.44,0.01,0.62,0.08c0.16,0.07,0.26,0.24,0.43,0.4
	c-0.13,0.01-0.21,0-0.27,0.02c-0.19,0.05-0.35-0.13-0.58-0.02c-0.16,0.08-0.4,0.05-0.61,0.03c-0.29-0.03-0.57-0.08-0.86-0.13
	c-0.14-0.02-0.28-0.05-0.38,0.11c0.11,0.04,0.22,0.08,0.33,0.12c0,0.13-0.11,0.12-0.21,0.12c-0.29,0-0.57-0.02-0.86-0.02
	c-0.13,0-0.26,0.01-0.4,0.01c0.15,0.24,0.15,0.22,0.44,0.21c0.23-0.01,0.45,0.04,0.73,0.07c-0.43,0.19-0.85,0.25-1.28,0.28
	c-0.52,0.03-1.03,0.06-1.55,0.06c-0.16,0-0.28,0.01-0.42,0.08c-0.08,0.04-0.24,0-0.35-0.03c-0.27-0.09-0.53-0.1-0.8,0
	c-0.06,0.02-0.14,0.02-0.22,0.02c-0.22,0.01-0.43,0.02-0.65,0.05c0.37,0.14,0.75,0.03,1.12,0.04c0.38,0.01,0.77,0.02,1.17,0.04
	c0.07,0.09-0.05,0.3,0.23,0.29c-0.09,0.03-0.18,0.06-0.26,0.08c0,0.01,0,0.03-0.01,0.04c0.17,0.03,0.34,0.06,0.51,0.09
	c0.18,0.03,0.36,0.07,0.55,0.12c-0.34,0.02-0.69,0.05-1.03,0.07c0,0.02,0,0.03,0,0.05c0.6,0,1.21,0,1.81,0
	c0,0.01,0.01,0.03,0.01,0.04c-0.14,0.02-0.27,0.06-0.41,0.06c-0.42,0.02-0.83,0.03-1.25,0.04c-0.52,0.01-1.04,0.02-1.56,0.04
	c-0.04,0-0.09,0-0.13,0c-0.5,0.07-1.01,0.04-1.51,0.03c-0.21,0-0.42,0.03-0.62,0.04c-0.5,0.01-1.01,0.02-1.51,0.03
	c-0.12,0-0.24,0.03-0.36,0.04c-0.18,0.02-0.37,0.11-0.51-0.04c-0.08,0.07-0.13,0.15-0.21,0.17c-0.09,0.02-0.21,0.02-0.29-0.02
	c-0.32-0.14-0.63-0.15-0.96-0.05c-0.03,0.01-0.07,0.01-0.09,0c-0.23-0.17-0.42-0.05-0.57,0.08c-0.17,0.14-0.37,0.13-0.56,0.15
	c-0.18,0.02-0.37,0-0.56-0.01c-0.06,0-0.12-0.03-0.17-0.06c-0.11-0.06-0.11-0.05-0.28,0.04c-0.06,0.03-0.15,0.03-0.22,0.03
	c-0.24-0.01-0.44,0.05-0.66,0.14c-0.19,0.08-0.45,0.07-0.67,0.08c-0.15,0.01-0.3,0-0.46,0l0.01,0c-0.06,0.06-0.1,0.13-0.23,0.13
	c-0.17-0.01-0.35,0-0.52,0.02c-0.05,0-0.1,0.03-0.15,0.05c-0.09,0.04-0.18,0.09-0.27,0.14c0.01,0.03,0.02,0.07,0.04,0.12
	c-0.45,0-0.89-0.03-1.32,0.09c0.96,0.08,1.92,0,2.88,0.05c-0.14,0.12-0.31,0.1-0.48,0.1c-0.12,0-0.23,0.02-0.35,0.02
	c-0.15,0.01-0.31,0.03-0.46,0.03c-0.25,0-0.51-0.02-0.68,0.19c-0.02,0.03-0.1,0.03-0.17,0.05c0.01-0.07,0.01-0.12,0.02-0.2
	c-0.1,0.01-0.19,0.01-0.28,0.03c-0.06,0.02-0.11,0.11-0.16,0.11c-0.15,0.01-0.31-0.01-0.46-0.02c-0.11-0.01-0.22-0.06-0.32-0.04
	c-0.42,0.08-0.85,0-1.27,0.03c-0.15,0.01-0.31,0-0.41,0.14c-0.03,0.04-0.11,0.07-0.17,0.07c-0.39,0.04-0.79,0.09-1.18,0.09
	c-0.28,0-0.55,0.01-0.81,0.08c-0.06,0.02-0.14,0.03-0.19,0.02c-0.37-0.09-0.74-0.01-1.11-0.02c-0.21,0-0.43-0.02-0.65,0.13
	c0.33,0.1,0.71-0.14,1.01,0.16c-0.31,0.02-0.57,0.03-0.83,0.05c0.56,0.14,1.13,0.08,1.76,0.12c-0.18,0.12-0.29,0.15-0.46,0.14
	c-0.24-0.02-0.48-0.01-0.72-0.01c-0.1,0-0.15,0.08-0.28,0.08c-0.28-0.01-0.52-0.13-0.76-0.21c-0.31-0.1-0.6-0.14-0.92-0.12
	c-0.16,0.01-0.32,0.01-0.56,0.02c0.35,0.17,0.66,0.1,0.96,0.12c0.16,0.27,0.47,0.32,0.79,0.38c-0.95-0.01-1.89,0.18-2.86,0.02
	c0.12-0.07,0.21-0.12,0.3-0.18c0.09,0,0.19,0,0.28,0c0-0.02,0.01-0.04,0.01-0.06c-0.09-0.01-0.18-0.02-0.27-0.02
	c0,0-0.01,0.06-0.02,0.09c-0.12-0.14-0.28-0.15-0.47-0.12c-0.08,0.01-0.17,0.02-0.26,0.03c-0.12,0.01-0.31-0.14-0.34,0.1
	c-0.2,0.01-0.43,0.08-0.58,0.01c-0.2-0.09-0.35-0.06-0.52-0.02c-0.09,0.02-0.18,0.04-0.27,0.09c0.47,0.11,0.96-0.06,1.49,0.1
	c-0.16,0.03-0.26,0.05-0.36,0.05c-0.25,0.01-0.51,0-0.76,0.04c-0.2,0.03-0.39,0.05-0.59,0c-0.08-0.02-0.21,0.01-0.28,0.06
	c-0.23,0.17-0.49,0.11-0.73,0.06c-0.29-0.06-0.57-0.1-0.89-0.03c0.1,0.05,0.17,0.09,0.25,0.13c0,0.02,0,0.03-0.01,0.05
	c-0.1,0.01-0.21,0.02-0.31,0.03c-0.7,0.03-1.39,0.05-2.09,0.08c-0.02,0-0.04,0-0.07,0.01c-0.87,0.12-1.75,0.13-2.63,0.17
	c-0.54,0.03-1.08,0.08-1.62,0.12c-0.21,0.02-0.42,0.02-0.63,0.03c-0.34,0.01-0.69-0.01-1.02,0.05c-0.27,0.06-0.53,0.03-0.8,0.04
	c-0.28,0.01-0.55,0.03-0.83,0.04c-0.29,0.01-0.58,0.02-0.86,0.04c-0.43,0.03-0.86,0.07-1.29,0.13c0.43,0.09,0.87,0.07,1.29,0.04
	c0.01,0.02,0.02,0.03,0.01,0.04c0,0.01-0.01,0.02-0.01,0.02c-0.64,0.04-1.27,0.08-1.92,0.11c0-0.08,0-0.13,0-0.16
	c-0.36,0.01-0.71,0-1.06,0.02c-0.29,0.01-0.58,0.05-0.87,0.07c-0.35,0.03-0.71,0.04-1.06,0.07c-0.18,0.02-0.35,0.08-0.53,0.12
	c-0.13,0.03-0.26,0.07-0.39,0.11c-0.01-0.02-0.02-0.04-0.02-0.05c0.07-0.02,0.13-0.05,0.24-0.08c-0.23-0.08-0.42-0.1-0.62-0.01
	c-0.1,0.05-0.19,0.05-0.31,0.04c-0.1-0.02-0.24,0.02-0.33,0.07c-0.16,0.09-0.33,0.11-0.5,0.05c-0.1-0.04-0.15-0.01-0.24,0.02
	c-0.25,0.07-0.5,0.13-0.75-0.02c-0.05-0.03-0.15-0.02-0.22-0.01c-0.36,0.02-0.72,0.08-1.09,0.02c-0.05-0.01-0.11-0.01-0.16,0
	c-0.45,0.11-0.9,0.05-1.35,0.03c-0.61-0.03-1.22-0.03-1.83-0.07c-0.96-0.06-1.92-0.13-2.88-0.22c-1.57-0.14-3.15-0.29-4.72-0.46
	c-1.1-0.12-2.2-0.22-3.28-0.41c-0.85-0.15-1.71-0.18-2.55-0.32c-0.72-0.12-1.44-0.2-2.16-0.28c-0.21-0.02-0.41-0.04-0.61-0.11
	C55.26,30,55.16,30,55.08,30c-0.63-0.01-1.26-0.02-1.88-0.01c-0.59,0.01-1.15-0.06-1.67-0.3c-0.05-0.02-0.12-0.03-0.14-0.06
	c-0.15-0.21-0.4-0.17-0.62-0.17c-0.45,0-0.91-0.01-1.36,0.01c-0.17,0.01-0.34,0.08-0.54,0.13c0.08,0.08,0.12,0.14,0.18,0.19
	c0.14,0.12,0.15,0.12-0.08,0.25c-0.08-0.11-0.15-0.22-0.23-0.34c-0.06-0.1-0.16-0.14-0.3-0.14c-0.87,0.03-1.74,0-2.61,0
	c-2.21,0-4.43-0.01-6.64-0.01c-0.9,0-1.8,0-2.69,0.03c-1.01,0.04-2.02-0.04-3.04-0.02c-0.08,0-0.15,0.01-0.25,0.01
	c0,0.12,0,0.22,0,0.32c-0.19-0.01-0.36-0.03-0.53-0.04c-0.03-0.1-0.06-0.19-0.09-0.27c-0.14-0.02-0.28-0.05-0.42-0.06
	c-0.17-0.01-0.36-0.03-0.42,0.21c-0.13-0.26-0.37-0.25-0.59-0.26c-0.42-0.02-0.84-0.05-1.25-0.04c-0.14,0-0.29,0.09-0.43,0.15
	l0.01-0.01c-0.25-0.15-0.52-0.2-0.82-0.11c-0.06,0.02-0.11,0.02-0.15,0.09c-0.03,0.05-0.2,0.06-0.29,0.03
	c-0.17-0.05-0.32-0.14-0.48-0.21c-0.02,0.06-0.05,0.13-0.08,0.21c-0.19-0.25-0.21-0.25-0.98-0.24c-0.07,0.18-0.24,0.2-0.43,0.19
	c-0.13-0.01-0.26-0.04-0.39-0.04c-0.18-0.01-0.37-0.01-0.55,0c-0.25,0.01-0.49,0.04-0.74,0.06c-0.04,0-0.08-0.02-0.12-0.03
	c-0.13-0.02-0.25-0.04-0.38-0.05c-0.15-0.01-0.3,0-0.53,0c0.12,0.03,0.17,0.04,0.22,0.06l0,0c-0.36,0.05-0.73,0.1-1.09,0.15
	c0,0.01,0,0.02,0,0.03c0.05,0.01,0.1,0.02,0.2,0.04c-0.32,0.12-0.59,0.22-0.87,0.33c-0.1,0.04-0.2,0.07-0.28,0.13
	c-0.17,0.11-0.33,0.11-0.5,0.01c-0.11-0.07-0.22-0.11-0.39-0.07c0.05,0.03,0.09,0.05,0.17,0.1c-0.18,0.01-0.31,0.01-0.43,0.01
	c-0.3,0.02-0.6,0.01-0.9,0.15c-0.18,0.09-0.45,0.05-0.68,0.07c-0.15,0.01-0.31-0.01-0.46,0.02c-0.33,0.06-0.67,0.11-0.99,0.21
	c-0.2,0.06-0.37,0.19-0.56,0.29c-0.08,0.04-0.19,0.09-0.27,0.08c-0.47-0.07-0.89,0.12-1.34,0.14c-0.3,0.02-0.59,0.03-0.89,0.04
	c-0.04,0-0.08-0.02-0.12-0.04c-0.03-0.02-0.07-0.05-0.09-0.08c-0.02-0.03-0.02-0.06-0.05-0.14c0.24,0.23,0.29,0.22,0.42-0.07
	c-0.15,0-0.29,0-0.43,0c-0.1,0-0.19-0.01-0.3-0.06c-0.12-0.06-0.31-0.01-0.47-0.01c0.01-0.03,0.02-0.06,0.03-0.09
	c-0.28,0-0.56,0-0.84,0c0-0.01,0-0.02,0-0.03c0.07-0.01,0.14-0.03,0.22-0.04c-0.1-0.11-0.27-0.12-0.4-0.17
	c-0.41-0.17-0.85-0.04-1.27-0.16c-0.23-0.06-0.49-0.01-0.74-0.01c-0.06,0-0.13,0.01-0.2,0.02c0.03-0.08,0.05-0.14,0.08-0.21
	c0.11-0.01,0.2-0.03,0.34-0.04c-0.21-0.07-0.39-0.14-0.6-0.21c0.12-0.05,0.21-0.08,0.35-0.13c-0.19-0.03-0.34-0.05-0.53-0.07
	c-0.04,0.09-0.09,0.18-0.14,0.28c-0.44-0.04-0.88-0.06-1.31-0.12c-0.63-0.09-1.28-0.02-1.91-0.11c-0.22-0.03-0.42-0.07-0.67-0.17
	c0.66,0.02,1.26,0.03,1.86,0.04c0.07,0,0.13,0.01,0.2,0.02c0.18,0.04,0.35,0.07,0.54,0c0.12-0.04,0.28-0.01,0.43,0
	c0.04,0,0.09,0.02,0.13,0.01c0.39-0.05,0.78-0.03,1.17-0.02c0.03,0,0.06-0.02,0.09-0.03c0.01,0,0.01-0.02,0.01-0.04
	c-0.34-0.17-0.7-0.21-1.1-0.18c-0.41,0.03-0.84-0.02-1.26-0.04c-0.07,0-0.14-0.04-0.21-0.06c0.32,0.03,0.65,0.04,0.97,0.02
	c0-0.02,0-0.04,0-0.06c-0.32,0.02-0.64,0.03-0.97,0.05c-0.22-0.05-0.44-0.09-0.68-0.14c0.08-0.01,0.14-0.04,0.2-0.03
	c0.51,0.02,1.01,0.06,1.52,0.08C8.99,29.19,9.2,29.23,9.39,29.12c0.14,0.02,0.29,0.05,0.43,0.08c0-0.02,0.01-0.04,0.01-0.06
	C9.69,29.08,9.54,29.05,9.39,29.12z M22.82,9.86c-0.05-0.02-0.09-0.03-0.15-0.05c-0.02,0.08-0.04,0.14-0.07,0.23
	C22.73,9.99,22.85,9.99,22.82,9.86c0.02,0,0.05,0.02,0.08,0.02c0.04,0,0.08,0,0.11-0.02c0.01-0.01,0.01-0.06,0-0.07
	c-0.03-0.02-0.08-0.03-0.11-0.02C22.86,9.79,22.84,9.83,22.82,9.86z M11.07,6.4c-0.13,0.15-0.34,0.17-0.52,0.22
	c-0.01,0.11,0.04,0.15,0.16,0.13C10.92,6.7,11.02,6.57,11.07,6.4c0.26,0.1,0.45-0.04,0.64-0.15c-0.1-0.01-0.19,0.01-0.28,0.04
	C11.31,6.32,11.19,6.36,11.07,6.4z M118.25,8.71c0.28-0.07,0.37-0.28,0.49-0.5c-0.09-0.04-0.17-0.07-0.3-0.11
	c0.14,0.25-0.11,0.25-0.19,0.33C118.25,8.54,118.25,8.63,118.25,8.71c-0.41-0.06-0.44-0.04-0.53,0.22c0.25,0.06,0.32,0.04,0.42-0.09
	C118.17,8.8,118.21,8.76,118.25,8.71z M11.59,12.47c0.02,0.05,0.04,0.1,0.08,0.17c0.1-0.11,0.17-0.19,0.23-0.28
	C11.69,12.22,11.66,12.39,11.59,12.47c0.01-0.13-0.08-0.19-0.25-0.21c0,0.3-0.36,0.19-0.49,0.32c0.06,0.07,0.12,0.14,0.19,0.21
	c0.08,0,0.19,0,0.26,0C11.4,12.67,11.5,12.57,11.59,12.47z M74.89,9.74c0.06,0.01,0.12,0.02,0.22,0.03
	c-0.04-0.05-0.05-0.07-0.06-0.09c-0.02-0.02-0.05-0.04-0.07-0.06c-0.16-0.18-0.23-0.19-0.46-0.1C74.36,9.58,74.05,9.54,74,9.42
	c-0.07-0.15-0.15-0.11-0.26-0.09c0.04,0.26,0.12,0.35,0.41,0.36c0.28,0.02,0.5,0.1,0.7,0.34C74.87,9.89,74.88,9.81,74.89,9.74
	L74.89,9.74z M125.85,7.4c0.01-0.05,0.02-0.09,0.02-0.14c-0.03,0.01-0.06,0.01-0.09,0.02C125.81,7.32,125.84,7.36,125.85,7.4
	c0.03,0.06,0.08,0.13,0.06,0.17c-0.08,0.16,0.06,0.2,0.19,0.32c-0.03-0.25,0.18-0.27,0.32-0.35c0.16-0.1,0.31-0.18,0.51-0.14
	c-0.03-0.06-0.05-0.11-0.06-0.16c0.09-0.02,0.19-0.04,0.28-0.07c0-0.01,0-0.03,0-0.04c-0.21-0.02-0.42-0.04-0.64-0.07
	c-0.04,0.11-0.07,0.21-0.11,0.33C126.21,7.4,126.03,7.4,125.85,7.4z M32.19,7.17c-0.17,0-0.33,0-0.54,0
	c0.21,0.17,0.29,0.17,0.55,0.06c0.03,0.02,0.07,0.06,0.1,0.06c0.37,0.01,0.75,0.01,1.12,0c0.1,0,0.2-0.05,0.29-0.07
	c-0.06-0.08-0.13-0.12-0.19-0.11c-0.06,0.01-0.11,0.06-0.16,0.1c-0.03-0.1-0.06-0.19-0.11-0.32c-0.09,0.09-0.15,0.15-0.17,0.17
	c-0.18-0.02-0.32-0.07-0.45-0.05C32.48,7.03,32.34,7.11,32.19,7.17z M64.13,9.61c-0.24,0.12-0.28-0.16-0.48-0.17
	c0.02,0.07,0.04,0.13,0.06,0.19c-0.08,0.05-0.16,0.1-0.19,0.12c-0.01,0.15-0.02,0.27-0.03,0.38c-0.08,0.04-0.16,0.08-0.25,0.13
	c0.03,0.03,0.05,0.06,0.07,0.07c0.03,0.02,0.07,0.03,0.16,0.08c0.01-0.12,0.01-0.2,0.02-0.29c0.2,0.03,0.41,0.06,0.63,0.1
	C64.11,10.02,64.04,9.81,64.13,9.61c0.04,0.01,0.09,0.04,0.12,0.03c0.28-0.09,0.56-0.19,0.83-0.28c-0.01-0.02-0.02-0.04-0.02-0.07
	c-0.1,0.01-0.21,0.02-0.31,0.04C64.52,9.39,64.31,9.46,64.13,9.61z M121.34,8.01c-0.19,0.07-0.42,0.1-0.56,0.21
	c-0.15,0.12-0.29,0.22-0.47,0.29c-0.1,0.04-0.2,0.08-0.17,0.2c0.22,0.13,0.4,0.07,0.57-0.06c0.15-0.12,0.3-0.25,0.48-0.34
	C121.35,8.23,121.38,8.14,121.34,8.01c0.21-0.08,0.24-0.15,0.11-0.26c-0.13-0.11-0.34-0.13-0.57-0.04c0.11,0.05,0.21,0.09,0.3,0.14
	C121.25,7.9,121.29,7.96,121.34,8.01z M108.47,4.95c0.07,0.05,0.13,0.09,0.2,0.14c0.11,0.07,0.21,0.19,0.32,0.2
	c0.12,0.01,0.25-0.09,0.35-0.14c-0.01-0.09-0.02-0.17-0.03-0.28C109.03,4.9,108.75,4.92,108.47,4.95c0.04-0.07,0.08-0.15,0.14-0.24
	c-0.1-0.03-0.21-0.05-0.33-0.09c0.26-0.15,0.65-0.1,0.75-0.42c-0.24-0.17-0.45-0.21-0.51-0.09c0.03,0.05,0.06,0.12,0.1,0.17
	c-0.14,0.21-0.4,0.26-0.63,0.34c0,0.08,0,0.15,0,0.23C108.15,4.89,108.31,4.92,108.47,4.95z M14.48,7.38
	c-0.07,0.07-0.12,0.15,0.02,0.25c0.06-0.07,0.12-0.13,0.19-0.21C14.6,7.4,14.53,7.4,14.48,7.38c0-0.02,0.01-0.07,0.02-0.07
	c0.07-0.02,0.15-0.02,0.26-0.04c-0.14-0.06-0.25-0.08-0.34-0.14C14.25,7,14.05,7.05,13.86,7.08c-0.11,0.02-0.19,0.12-0.3,0.15
	c-0.12,0.03-0.25,0.01-0.38,0.03c-0.17,0.02-0.34,0.06-0.51,0.09c-0.12,0.02-0.24,0.03-0.36,0.04c-0.1,0.01-0.19,0.03-0.19,0.12
	c0,0.05,0.06,0.11,0.1,0.15c0.03,0.03,0.09,0.05,0.13,0.07c0.03-0.03,0.05-0.04,0.06-0.06c0.01-0.07,0.01-0.14,0.02-0.23
	c0.16,0.04,0.31,0.06,0.45,0.11c0.33,0.12,0.66,0.06,0.96-0.04C14.05,7.43,14.25,7.34,14.48,7.38z M114.11,5L114.11,5
	c-0.07,0.15,0.08,0.22,0.18,0.33c0.19-0.12,0.4-0.18,0.62-0.15c0.02,0.03,0.05,0.05,0.07,0.08c-0.08,0.04-0.17,0.07-0.25,0.11
	c0.1,0.06,0.2,0.08,0.27,0.06c0.22-0.06,0.34-0.21,0.37-0.4c0.03-0.17,0.11-0.32,0.3-0.4c0.11-0.05,0.12-0.13,0.08-0.18
	c-0.04-0.06-0.16-0.15-0.21-0.14c-0.22,0.07-0.48,0.11-0.67,0.33c0.2,0,0.34,0,0.51,0c-0.2,0.16-0.36,0.3-0.54,0.44
	c-0.12-0.04-0.24-0.08-0.34-0.12c0.02-0.11,0.04-0.2,0.06-0.31c-0.24,0-0.44,0-0.63,0C113.84,4.86,113.91,4.96,114.11,5z
	 M60.45,7.16L60.45,7.16c0.1-0.05,0.19-0.11,0.28-0.18c-0.17-0.01-0.31-0.05-0.46,0.06c-0.08,0.06-0.24,0.06-0.39,0.08
	c-0.03-0.15-0.06-0.27-0.07-0.38c-0.01-0.13-0.1-0.21-0.24-0.2c-0.12,0.01-0.23,0.04-0.4,0.08c0.12,0.09,0.2,0.16,0.29,0.22
	c0.09,0.06,0.19,0.12,0.28,0.17c-0.04,0.15-0.16,0.17-0.28,0.19c-0.16,0.03-0.32,0.06-0.48,0.09c-0.11,0.02-0.16,0.08-0.14,0.16
	c0.03,0.1,0.08,0.21,0.16,0.29c0.06,0.06,0.18,0.06,0.27,0.1c0.11,0.04,0.2,0.05,0.28-0.04c-0.07-0.06-0.13-0.11-0.19-0.16
	c0.05-0.04,0.06-0.06,0.08-0.07c0.15-0.08,0.33,0,0.47-0.02c0.24-0.04,0.46-0.17,0.72-0.27C60.53,7.22,60.49,7.19,60.45,7.16z
	 M127.37,8.38c-0.05-0.1-0.09-0.17-0.13-0.24c-0.11,0.01-0.2,0.04-0.28,0.03c-0.33-0.04-0.66,0.01-0.98,0.06
	c-0.15,0.02-0.29,0.01-0.44-0.07c-0.12-0.07-0.28-0.07-0.37-0.09c-0.17,0.26-0.31,0.48-0.45,0.7c0.24,0.12,0.43,0.28,0.65,0.31
	c0.36,0.05,0.74-0.01,1.11,0.04c0.06,0.01,0.14-0.05,0.21-0.07c0.11-0.03,0.23-0.05,0.34-0.08c0.01,0,0.02-0.02,0.05-0.06
	c-0.08-0.04-0.16-0.08-0.27-0.13C127.03,8.62,127.19,8.51,127.37,8.38z M101.81,7.6c0.02-0.03,0.04-0.05,0.06-0.08
	c-0.11-0.06-0.22-0.11-0.35-0.18c0.14-0.08,0.21-0.13,0.3-0.18c0.23-0.12,0.5-0.08,0.59,0.11c0.08,0.16,0.24,0.2,0.38,0.29
	c0.19,0.11,0.33,0.02,0.49-0.05c0.07-0.03,0.15-0.02,0.22-0.05c0.15-0.05,0.35-0.07,0.45-0.17c0.14-0.13,0.29-0.14,0.46-0.16
	c0.17-0.03,0.35-0.05,0.4-0.24c-0.14-0.02-0.25-0.04-0.37-0.05c-0.35-0.05-0.7-0.1-1.04,0.03c-0.1,0.04-0.23,0.01-0.37,0.01
	c-0.04-0.21-0.17-0.33-0.42-0.34c-0.13-0.01-0.17,0.06-0.18,0.16c0.11,0.08,0.23,0.16,0.34,0.24c-0.15,0-0.28-0.04-0.4-0.09
	c-0.18-0.08-0.38-0.12-0.53-0.02c-0.22,0.14-0.46,0.27-0.62,0.47C101.37,7.49,101.54,7.62,101.81,7.6z M95.85,5.95
	c0.13-0.05,0.26-0.12,0.4-0.16c0.15-0.04,0.3-0.06,0.36-0.21c-0.05-0.06-0.09-0.12-0.13-0.18c0.15-0.05,0.28-0.08,0.39-0.13
	c0.12-0.06,0.22-0.15,0.34-0.21c0.09-0.04,0.21-0.06,0.31-0.07c0.09-0.01,0.19,0,0.31,0C97.8,4.73,98,4.61,98.28,4.46
	c-0.19-0.04-0.31-0.08-0.43-0.09c-0.24-0.04-0.48-0.03-0.68-0.19c-0.02-0.02-0.09,0.01-0.16,0.01c0.44,0.27,0.44,0.27,0.42,0.51
	c-0.24,0.09-0.48,0.11-0.73,0.03c-0.17-0.05-0.32-0.04-0.47,0.04c0.05,0.14,0.09,0.27,0.14,0.4c-0.24,0-0.25,0.01-0.46-0.12
	c-0.22-0.14-0.48-0.14-0.75-0.2c0.01,0.1,0.02,0.17,0.02,0.24c-0.07,0.04-0.14,0.08-0.22,0.13c0.33,0.33,0.67-0.03,0.99,0.03
	c0.11,0.17,0.11,0.17,0.3,0.22C95.79,5.68,95.79,5.68,95.85,5.95z M55.41,7.64c0.22-0.07,0.38-0.15,0.56-0.19
	c0.23-0.04,0.3,0.13,0.41,0.25c-0.3,0.24-0.3,0.26-0.16,0.43c0.24-0.08,0.47-0.15,0.7-0.23c-0.01-0.02-0.02-0.06-0.03-0.1
	c0.08-0.05,0.16-0.09,0.24-0.13c-0.26,0.01-0.19-0.16-0.19-0.27c-0.22,0-0.43,0.11-0.62-0.07c0.07-0.05,0.12-0.1,0.18-0.15
	c-0.04-0.03-0.06-0.05-0.09-0.06c-0.22-0.05-0.29-0.17-0.27-0.36c0.01-0.07-0.06-0.14-0.1-0.23c0.04-0.06,0.08-0.16,0.16-0.22
	c0.08-0.05,0.21-0.06,0.31-0.09c-0.21-0.1-0.34-0.33-0.61-0.28c-0.04,0.19-0.07,0.37-0.1,0.5c-0.14,0.08-0.28,0.13-0.31,0.2
	c-0.03,0.08,0.05,0.19,0.09,0.3c-0.21,0.14-0.49-0.12-0.68,0.04c0.11,0.13,0.2,0.25,0.32,0.4c0.04,0.01,0.14,0.04,0.24,0.07
	C55.44,7.52,55.43,7.56,55.41,7.64z M82.32,8.57c-0.09,0-0.17-0.01-0.26,0c-0.07,0.01-0.16,0.01-0.21,0.05
	c-0.2,0.15-0.41,0.15-0.65,0.09c-0.04-0.01-0.08,0-0.15,0C81.04,8.79,81.02,8.86,81,8.97c0.14-0.02,0.23-0.03,0.33-0.04
	c0.03,0.08,0.05,0.15,0.09,0.24c0.17-0.07,0.32-0.13,0.48-0.18c0.17-0.05,0.35-0.1,0.53-0.13c0.17-0.03,0.34-0.02,0.51-0.03
	c0.01-0.04,0.02-0.08,0.04-0.14c0.18,0.05,0.35,0.16,0.51,0.03c-0.07-0.1-0.15-0.19-0.2-0.28c-0.06-0.1-0.14-0.1-0.25-0.09
	c-0.17,0.02-0.34,0.02-0.5,0.02c-0.12-0.23-0.12-0.23-0.78-0.3c0.26,0.21-0.17,0.25-0.09,0.42c0.11,0.07,0.22,0.06,0.33,0
	C82.12,8.41,82.24,8.41,82.32,8.57z M23.63,3.77c-0.46,0.54-0.44,1.33,0,1.93c0.13-0.07,0.27-0.13,0.41-0.2
	c0.01-0.08,0.03-0.16,0.05-0.24c0.02-0.13,0.05-0.26,0.05-0.39c0-0.1,0-0.23-0.07-0.29c-0.15-0.12-0.17-0.27-0.22-0.42
	C23.8,4.03,23.71,3.93,23.63,3.77z M50.06,7.27c-0.09,0-0.18-0.01-0.27,0c-0.09,0.01-0.2,0.07-0.28,0.05
	c-0.26-0.08-0.44,0.03-0.63,0.15c-0.35,0.2-0.48,0.19-0.83,0c-0.19-0.1-0.4-0.17-0.64-0.07c0,0.16,0.09,0.22,0.26,0.24
	c0.21,0.02,0.42,0.04,0.58,0.18c-0.02,0.04-0.04,0.08-0.06,0.14c0.18,0,0.33,0,0.5,0c-0.02,0.07-0.03,0.12-0.04,0.19
	c0.19-0.03,0.36-0.05,0.53-0.08c0.18-0.03,0.38,0.01,0.6-0.15c-0.1-0.03-0.18-0.06-0.24-0.08C49.73,7.63,49.88,7.47,50.06,7.27z
	 M100.66,10.39c-0.29-0.13-0.5-0.34-0.81-0.39c-0.13-0.02-0.26-0.08-0.33,0.09c-0.02,0.04-0.12,0.07-0.19,0.07
	c-0.11,0.01-0.22-0.02-0.33-0.02c-0.68,0.02-1.35,0.07-1.86,0.58c0.32,0.07,0.57,0.01,0.79-0.15c0.34-0.24,0.72-0.35,1.17-0.2
	c0.2,0.06,0.42,0.1,0.63,0.12c0.19,0.01,0.37,0,0.55,0.07C100.48,10.64,100.53,10.6,100.66,10.39z M86.58,4.9
	c-0.43-0.12-0.51-0.11-0.7,0.08c-0.23-0.11-0.46-0.12-0.7,0.02c0.12,0.1,0.24,0.11,0.35,0.05c0.16-0.09,0.26-0.04,0.39,0.06
	c-0.04,0.08-0.09,0.15-0.14,0.23C85.9,5.39,86,5.43,86.12,5.47c0.01,0.05,0.02,0.09,0.03,0.14c0.01,0.05,0.03,0.09,0.04,0.14
	c0.1,0.28,0.09,0.27-0.19,0.43c-0.08,0.05-0.11,0.16-0.19,0.27c0.15,0.01,0.25,0.02,0.37,0.02c-0.09-0.38,0.36-0.26,0.51-0.43
	c-0.03-0.06-0.06-0.11-0.1-0.18c0.14-0.06,0.27-0.11,0.44-0.19c-0.13-0.05-0.22-0.09-0.32-0.12c-0.06-0.02-0.13-0.03-0.19-0.05
	c-0.14-0.05-0.27-0.1-0.11-0.26C86.51,5.14,86.53,5.01,86.58,4.9z M77.24,6.32c0.07,0,0.11,0.01,0.14,0
	c0.06-0.02,0.12-0.05,0.18-0.07c0.36-0.19,0.54-0.16,0.77,0.13c0.35-0.01,0.35-0.01,0.33-0.26c-0.08-0.01-0.16-0.03-0.26-0.04
	c0.06-0.16,0.11-0.3,0.15-0.42c-0.11-0.1-0.23-0.2-0.32-0.32c-0.11-0.14-0.23-0.22-0.47-0.15c0.09,0.1,0.16,0.19,0.25,0.3
	c-0.14,0.03-0.24-0.15-0.33-0.02c-0.04,0.06-0.01,0.15-0.02,0.22c0.11,0.04,0.19,0.06,0.27,0.09c-0.2,0.18-0.47,0.2-0.73,0.27
	C77.2,6.14,77.22,6.22,77.24,6.32z M61.24,9.06c-0.1-0.24-0.05-0.4,0.23-0.47c0.08-0.02,0.14-0.11,0.2-0.18c0.01-0.01,0-0.03,0-0.05
	c-0.05-0.01-0.1-0.03-0.18-0.04c0.08-0.09,0.16-0.16,0.27-0.29c-0.34,0.02-0.61,0.04-0.89,0.07c-0.27,0.03-0.54,0.07-0.82,0.1
	c0.14,0.28,0.37,0.36,0.67,0.27c0.12,0.18-0.1,0.24-0.13,0.34c0.02,0.09,0.04,0.18,0.06,0.29C60.84,9.1,61.01,9.08,61.24,9.06z
	 M83.48,3.46c0.04-0.09,0.08-0.15,0.08-0.2c0-0.05-0.05-0.09-0.07-0.14c-0.06,0.03-0.17,0.06-0.17,0.09c-0.01,0.09,0,0.17-0.11,0.22
	c-0.01,0,0,0.06,0.01,0.07c0.09,0.03,0.13,0.09,0.05,0.15c-0.05,0.04-0.14,0.06-0.2,0.05c-0.49-0.08-0.96,0.04-1.5,0.07
	c0.17,0.14,0.3,0.07,0.42,0.06c0.13-0.01,0.27-0.06,0.31,0.08c-0.15,0.21-0.29,0.4-0.43,0.59c0.31-0.03,0.63-0.06,0.98-0.1
	c0.01-0.02,0.03-0.07,0.07-0.15c-0.2-0.02-0.37-0.04-0.56-0.06c0.05-0.17,0.22-0.18,0.36-0.22c0.31-0.09,0.62-0.19,0.92-0.29
	c0.1-0.04,0.19-0.1,0.35-0.18C83.8,3.48,83.66,3.47,83.48,3.46z M73.33,5.45c-0.14-0.13-0.26-0.07-0.34,0.02
	c-0.11,0.13-0.26,0.13-0.41,0.12c-0.12-0.01-0.24-0.04-0.36-0.05c-0.19-0.02-0.39-0.03-0.61-0.05c-0.03,0.15-0.06,0.27-0.08,0.39
	c0.24,0.07,0.44,0.12,0.63,0.18c0.08-0.02,0.16-0.07,0.24-0.06c0.13,0.02,0.23-0.04,0.33-0.04c0.15-0.01,0.18-0.19,0.35-0.12
	c0.19,0.08,0.29-0.02,0.35-0.17c-0.09-0.03-0.18-0.06-0.29-0.1C73.21,5.53,73.27,5.49,73.33,5.45z M70.7,7.88
	c0.12-0.07,0.17-0.1,0.22-0.13c-0.16-0.05-0.31-0.11-0.46-0.14c-0.16-0.04-0.24-0.11-0.15-0.29c-0.2,0.06-0.34,0.12-0.48,0.15
	c-0.16,0.03-0.32,0.04-0.48,0.07c-0.05,0.01-0.11,0.03-0.15,0.06c-0.11,0.08-0.2,0.17-0.33,0.28c0.17-0.04,0.3-0.07,0.44-0.1
	c0.14-0.03,0.28-0.07,0.42-0.08c0.07,0,0.14,0.05,0.21,0.08C69.85,7.85,69.96,7.86,70,7.89c0.18,0.11,0.37,0.18,0.64,0.11
	c-0.06,0.17-0.1,0.31-0.16,0.47c0.28-0.09,0.53-0.31,0.6-0.49C70.98,7.95,70.87,7.93,70.7,7.88z M65.43,6.24
	c0.24-0.08,0.47-0.13,0.73-0.08c0.08,0.02,0.22-0.03,0.26-0.09c0.06-0.09,0.13-0.11,0.24-0.12c0.09-0.01,0.17-0.02,0.25-0.04
	c0.12-0.2,0.24-0.38,0.35-0.56c-0.15-0.04-0.28-0.08-0.4-0.12c0.06-0.15,0.11-0.28,0.17-0.4c-0.11,0.03-0.17,0.1-0.25,0.12
	c-0.1,0.03-0.21,0.02-0.33,0.03c-0.03,0.13-0.05,0.25-0.08,0.38c0.19-0.01,0.46,0.02,0.49,0.04c-0.14,0.12-0.27,0.24-0.47,0.41
	C66.1,5.9,65.73,6,65.43,6.24z M66.78,4.34c-0.43-0.15-0.84-0.28-1.31-0.16c-0.14,0.03-0.31,0.01-0.48,0.01
	c-0.04,0.11-0.1,0.23-0.14,0.35c-0.01,0.02,0.03,0.04,0.09,0.12C64.97,4.56,65,4.5,65.02,4.45c0.48,0.21,0.95,0.14,1.4,0.13
	C66.59,4.58,66.7,4.48,66.78,4.34z M51.98,8.89c0.12,0.13,0.26,0.23,0.34,0.36c0.07,0.12,0.18,0.17,0.31,0.17
	c0.14,0,0.24-0.07,0.27-0.2c-0.09-0.1-0.25-0.18-0.14-0.34c0.3-0.04,0.6-0.08,0.9-0.12c0-0.18-0.12-0.21-0.24-0.21
	c-0.17,0-0.35,0.03-0.52,0.06c-0.1,0.01-0.19,0.06-0.28,0.06C52.35,8.63,52.14,8.7,51.98,8.89z M114.37,8.14
	c-0.13-0.09-0.27-0.1-0.35-0.01c-0.18,0.18-0.41,0.15-0.64,0.14c-0.16-0.01-0.32-0.06-0.47,0.03c0.02,0.13,0.04,0.24,0.07,0.37
	c0.08-0.02,0.16-0.03,0.23-0.05c0.12-0.04,0.23-0.03,0.34,0.03c0.32,0.17,0.71,0.08,0.94-0.2C114.34,8.37,114.28,8.27,114.37,8.14z
	 M107.09,7.78c-0.06,0.01-0.15,0.03-0.24,0.02c-0.15-0.01-0.26,0.03-0.28,0.16c-0.01,0.1-0.08,0.1-0.15,0.11
	c-0.17,0.04-0.34,0.09-0.51,0.11c-0.24,0.03-0.3,0.06-0.39,0.32c0.37,0,0.74,0.15,1.08-0.1c0.08-0.06,0.2-0.07,0.3-0.11
	c0.14-0.05,0.27-0.11,0.33-0.22C107.18,7.97,107.14,7.88,107.09,7.78z M81.25,4.83c-0.35-0.14-0.72-0.21-1.12-0.11
	c0.02,0.06,0.04,0.12,0.07,0.2c-0.1,0-0.19,0-0.27,0c-0.08,0-0.16,0.01-0.29,0.01c0.07,0.11,0.13,0.18,0.15,0.26
	c0.03,0.08,0.02,0.17,0.04,0.29c0.09-0.04,0.19-0.05,0.23-0.1c0.18-0.22,0.17-0.23,0.49-0.14c0.14,0.04,0.25,0.05,0.35-0.11
	C80.96,5.01,81.13,4.93,81.25,4.83z M90.69,7.39c-0.29-0.13-0.37-0.52-0.86-0.49c0.07,0.27-0.23,0.25-0.39,0.38
	c0.05,0.08,0.09,0.16,0.16,0.26c0.14-0.23,0.37-0.13,0.56-0.19c0.06,0.1,0.11,0.2,0.17,0.31c-0.22,0.02-0.38,0.03-0.55,0.05
	c0.07,0.3,0.1,0.31,0.39,0.26c0.13-0.02,0.14-0.1,0.19-0.16C90.46,7.68,90.57,7.55,90.69,7.39z M126.83,11.47
	c0.16,0.16,0.29,0.23,0.44,0.19c0.27-0.08,0.53-0.1,0.81-0.07c0.17,0.02,0.25-0.11,0.18-0.24c-0.18-0.34-0.52-0.5-1-0.44
	c0.04,0.16,0.09,0.31,0.14,0.49C127.21,11.41,127.04,11.44,126.83,11.47z M11.63,6.81c0.08,0.18,0.16,0.35,0.24,0.51
	c0.41,0.09,0.72-0.04,0.96-0.31c-0.02-0.04-0.06-0.07-0.05-0.1c0.02-0.18-0.11-0.23-0.28-0.24C12.19,6.64,11.89,6.65,11.63,6.81z
	 M77.25,4.61c0.01,0.03,0.03,0.05,0.04,0.08c0.15-0.01,0.32,0.02,0.45-0.03c0.25-0.11,0.44-0.09,0.62,0.08
	c0.07,0.07,0.11,0.16,0.18,0.25c0.13-0.03,0.27-0.06,0.4-0.1c0.13-0.05,0.28,0.09,0.39-0.04c-0.27-0.18-0.53-0.35-0.75-0.49
	c-0.24,0.03-0.46,0.05-0.67,0.07c-0.16,0.02-0.33,0.03-0.49,0.07C77.35,4.5,77.3,4.57,77.25,4.61z M81.45,3.18
	c-0.54-0.15-1.07-0.12-1.31,0.07c0.09,0.03,0.17,0.1,0.25-0.01c0.02-0.02,0.06-0.02,0.09-0.03c0.01,0.03,0.03,0.06,0.02,0.09
	c-0.01,0.03-0.03,0.06-0.06,0.09c0.08,0.02,0.14,0.04,0.2,0.06c-0.03,0.05-0.05,0.09-0.07,0.14c-0.02,0.04-0.02,0.09-0.03,0.13
	c0.28,0.12,0.28,0.12,0.75,0.01C81.03,3.49,81.31,3.35,81.45,3.18z M93.82,5.41c0.13-0.04,0.23-0.07,0.39-0.12
	c-0.13-0.06-0.21-0.11-0.3-0.14c-0.29-0.1-0.29-0.1-0.27-0.35c0-0.04-0.01-0.09-0.02-0.15c-0.25-0.02-0.47,0.05-0.67,0.13
	c-0.12,0.05-0.26,0.11-0.2,0.25c0.06,0.12,0.21,0.07,0.32,0.07c0.09,0,0.17-0.03,0.26-0.04c0.07-0.01,0.14,0,0.24,0
	c-0.02,0.11-0.05,0.19-0.06,0.27c0,0.09-0.01,0.2,0.04,0.25c0.09,0.09,0.22,0.05,0.33-0.01C93.87,5.52,93.85,5.47,93.82,5.41z
	 M118.32,5.48c0.34-0.03,0.73,0.09,1-0.19c-0.04-0.05-0.08-0.11-0.12-0.17c-0.08-0.12-0.19-0.22-0.36-0.18
	c-0.27,0.06-0.54,0.13-0.84,0.21C118.13,5.27,118.22,5.37,118.32,5.48z M96.45,7.74c0.14-0.06,0.24-0.1,0.38-0.16
	c-0.24-0.2-0.48-0.26-0.76-0.25c-0.05,0-0.13,0.02-0.15,0.05c-0.1,0.15-0.32,0.28-0.15,0.5c0.19,0.07,0.39,0.17,0.65,0.08
	C96.43,7.88,96.44,7.81,96.45,7.74z M62.61,4.72c0.03,0.12,0.09,0.23,0.07,0.33c-0.02,0.1-0.12,0.19-0.2,0.32
	c0.26,0.03,0.39-0.12,0.55-0.17c0.17-0.05,0.32-0.16,0.47-0.25c-0.11-0.18-0.2-0.33-0.28-0.45C62.99,4.59,62.79,4.66,62.61,4.72z
	 M75.81,7.91c-0.04,0.09-0.09,0.16-0.1,0.24C75.7,8.2,75.68,8.3,75.72,8.32c0.1,0.06,0.22,0.13,0.34,0.14
	c0.29,0.03,0.58,0.03,0.72-0.26c0.01-0.03,0.05-0.04,0.11-0.09c-0.17-0.02-0.32,0-0.39-0.06C76.29,7.89,76.04,7.94,75.81,7.91z
	 M17.88,7.15c0.38,0.17,0.38,0.16,0.79,0.15c0.25-0.01,0.5-0.11,0.77-0.01c0.12,0.04,0.19-0.05,0.18-0.21
	c-0.09-0.01-0.25,0.02-0.27-0.02C19.24,6.9,19.08,7,18.95,6.97c-0.18-0.04-0.34-0.01-0.5,0.04c-0.02,0.01-0.04,0-0.07,0
	C18.19,6.98,18.02,7.04,17.88,7.15z M103.21,9.8c0.15-0.26,0.06-0.45-0.25-0.51c-0.09-0.02-0.2,0.02-0.3,0.04
	c0.02,0.08,0.02,0.16,0.06,0.22c0.13,0.2,0.14,0.24-0.01,0.42c-0.12,0.13-0.24,0.25-0.37,0.39c0.15-0.02,0.28-0.04,0.37-0.05
	c0.11-0.11,0.18-0.2,0.27-0.27c0.1-0.09,0.14-0.16-0.01-0.24c-0.03-0.02-0.02-0.09-0.05-0.18C103.05,9.69,103.13,9.74,103.21,9.8z
	 M120.72,26.89c0,0.03,0,0.05-0.01,0.08c0.09,0.01,0.18,0.03,0.28,0.03c0.19,0,0.38-0.02,0.56,0.09c0.09,0.06,0.29,0.09,0.4-0.06
	c0.03-0.04,0.16-0.04,0.24-0.05c0.07-0.01,0.13-0.02,0.2-0.04c-0.09-0.04-0.29-0.15-0.45-0.21c-0.13-0.05-0.3-0.06-0.45-0.06
	c-0.06,0-0.12,0.1-0.17,0.15C121.13,26.85,120.93,26.87,120.72,26.89z M35.04,6.49c0.1,0.02,0.21,0.04,0.32,0.05
	c0.11,0.02,0.2,0.06,0.19,0.16c-0.01,0.08-0.05,0.16-0.12,0.22c-0.06,0.05-0.16,0.05-0.23,0.09c-0.03,0.02-0.04,0.08-0.06,0.13
	c0.9-0.22,0.66-0.21,0.94-0.7c-0.02-0.01-0.04-0.03-0.05-0.03c-0.1,0.01-0.19,0.03-0.29,0.04C35.4,6.51,35.38,6.5,35.3,6.21
	c0-0.01-0.03-0.02-0.05-0.03C34.99,6.29,34.99,6.29,35.04,6.49z M91.81,6.83c0.01-0.02,0.02-0.03,0.03-0.05
	c-0.05-0.05-0.1-0.1-0.15-0.15c0.14-0.05,0.27-0.09,0.4-0.14c0-0.02,0.01-0.04,0.01-0.07c-0.4,0.1-0.44-0.17-0.58-0.35
	c-0.23,0.02-0.46,0.04-0.66,0.25c0.24,0,0.42,0,0.57,0c-0.04,0.09-0.11,0.17-0.13,0.27c-0.01,0.05,0.05,0.13,0.1,0.15
	C91.54,6.79,91.68,6.8,91.81,6.83z M123.42,11.98c0.04,0.04,0.06,0.08,0.08,0.08c0.15-0.01,0.3-0.06,0.43-0.03
	c0.15,0.03,0.29,0.09,0.44,0.04c0.04-0.01,0.1-0.02,0.12-0.04c0.15-0.15,0.37-0.15,0.56-0.2c0.07-0.02,0.13-0.04,0.19-0.06
	c-0.26-0.01-0.51,0.01-0.76,0.01c-0.2,0.01-0.4,0.01-0.59,0.01C123.7,11.79,123.55,11.84,123.42,11.98z M117.71,7.68
	c0.21,0.1,0.38,0.19,0.56,0.27c0.07-0.05,0.12-0.11,0.19-0.15c0.09-0.05,0.25-0.07,0.2-0.18c-0.04-0.09-0.18-0.15-0.28-0.21
	c-0.04-0.02-0.11-0.01-0.16-0.01c-0.17,0.01-0.35,0.03-0.52,0.05C117.71,7.55,117.71,7.62,117.71,7.68z M54.27,9.21
	c0.26,0,0.49,0.02,0.71,0c0.11-0.01,0.22-0.08,0.31-0.14c0.1-0.07,0.08-0.17-0.02-0.25c-0.13-0.1-0.66-0.06-0.77,0.07
	C54.43,8.99,54.37,9.08,54.27,9.21z M113.21,5.61c-0.16-0.03-0.27-0.12-0.4-0.02c-0.06,0.05,0.01,0.25,0.15,0.3
	c0.23,0.09,0.3,0.23,0.23,0.44c0.56-0.08,0.56-0.08,0.56-0.33c0.05-0.02,0.09-0.03,0.18-0.06c-0.14-0.02-0.33-0.01-0.34-0.04
	c-0.05-0.15-0.16-0.09-0.26-0.08c-0.13,0.01-0.26,0.04-0.35-0.08C113.06,5.7,113.12,5.67,113.21,5.61z M57.31,9.26
	c-0.27-0.01-0.54-0.03-0.84-0.05c-0.1,0.09-0.21,0.19-0.31,0.28c0.04,0.11,0.09,0.16,0.23,0.15c0.18-0.02,0.13-0.14,0.18-0.26
	c0.1,0.04,0.21,0.06,0.26,0.11c0.04,0.04,0.01,0.13,0.01,0.19C57.13,9.69,57.28,9.55,57.31,9.26z M101.9,5.49
	c-0.22,0.2-0.49,0.28-0.78,0.27c-0.28-0.01-0.55-0.05-0.85-0.08c0.08,0.24,0.51,0.13,0.45,0.44c0.32-0.1,0.63-0.17,0.92-0.28
	C101.79,5.78,101.98,5.71,101.9,5.49z M123.19,6.09c0.25-0.02,0.46-0.04,0.67-0.06c0.01-0.02,0.01-0.04,0.02-0.06
	c-0.11-0.07-0.22-0.15-0.35-0.23c0.07-0.01,0.12-0.02,0.17-0.02c0-0.01,0-0.03,0-0.04c-0.07-0.01-0.14-0.03-0.21-0.04
	c0.04-0.22,0.03-0.23-0.4-0.29c-0.03,0.08-0.06,0.17-0.09,0.26C123.13,5.74,123.32,5.85,123.19,6.09z M81.97,5.94
	c-0.02,0.11-0.23,0.15-0.12,0.31c0.07-0.01,0.19-0.01,0.22-0.05c0.17-0.2,0.47-0.24,0.67-0.41c-0.11-0.03-0.23-0.05-0.31-0.1
	c-0.22-0.16-0.42-0.09-0.66-0.01C81.85,5.78,81.91,5.86,81.97,5.94z M117.5,6.71c0.28,0.04,0.39,0.02,0.49-0.13
	c0.11-0.17,0.27-0.29,0.48-0.36c0.05-0.02,0.09-0.05,0.13-0.07c-0.15-0.27-0.2-0.28-0.56-0.13c0.03,0.06,0.06,0.12,0.1,0.2
	C117.73,6.25,117.67,6.51,117.5,6.71z M124.77,10.7c0.4,0.03,0.4,0.03,0.51,0.21c0.24-0.13,0.49-0.26,0.73-0.38
	c-0.09-0.17-0.23-0.12-0.34-0.1c-0.27,0.05-0.53,0.09-0.75-0.03C124.87,10.51,124.82,10.61,124.77,10.7z M43.97,5.8
	C43.65,5.85,43.36,5.89,43,5.94c0.19,0.23-0.15,0.3-0.17,0.46c0.24-0.03,0.47-0.05,0.7-0.08c0.11-0.02,0.17-0.08,0.09-0.18
	c-0.03-0.03-0.06-0.06-0.11-0.11C43.71,5.99,43.96,6.09,43.97,5.8z M83.48,4.07c0.1,0.31,0.13,0.34,0.3,0.31
	c0.31-0.05,0.61-0.05,0.92,0.01c0.18,0.03,0.38,0.02,0.53-0.12c-0.13-0.01-0.26,0-0.39,0c-0.1,0-0.23,0.01-0.31-0.03
	C84.2,4.08,83.85,4.13,83.48,4.07z M74.84,5.46c-0.33,0.16-0.56,0.05-0.76-0.07c0.01-0.08,0.05-0.17,0.01-0.21
	C74,5.09,73.92,5.15,73.83,5.2c-0.08,0.04-0.19,0.05-0.3,0.08c0.06,0.08,0.12,0.16,0.14,0.2c0.18,0.05,0.4,0.07,0.43,0.13
	c0.05,0.14,0.15,0.11,0.25,0.1c0.13-0.01,0.26-0.02,0.4-0.03C74.78,5.63,74.79,5.57,74.84,5.46z M115.55,7.96
	c-0.15-0.1-0.28-0.19-0.45-0.3c-0.06,0.08-0.09,0.23-0.26,0.23c-0.13,0-0.27,0.01-0.4,0.01c0.19,0.11,0.26,0.35,0.54,0.28
	C115.2,8.13,115.41,8.09,115.55,7.96z M92.61,8.39c-0.15,0.28,0.11,0.44,0.13,0.65c0,0.01,0.11,0.02,0.16,0.03
	c0.06-0.08,0.09-0.17,0.16-0.21c0.17-0.09,0.16-0.2,0.1-0.34C92.98,8.48,92.81,8.44,92.61,8.39z M83.74,7.54
	c-0.04-0.1-0.07-0.2-0.13-0.29c-0.03-0.05-0.1-0.09-0.17-0.1c-0.06-0.01-0.12,0.03-0.19,0.04C83.14,7.19,83.03,7.19,83,7.32
	c-0.02,0.11,0.04,0.2,0.14,0.27C83.33,7.71,83.47,7.7,83.74,7.54z M77.86,9.87c0.19-0.09,0.43-0.08,0.53-0.25
	c-0.13-0.2-0.36-0.24-0.57-0.33c-0.1,0.13-0.2,0.25-0.29,0.37C77.65,9.73,77.75,9.8,77.86,9.87z M61.48,7.17
	c-0.01,0.02-0.01,0.04-0.02,0.05c0.1,0.07,0.18,0.15,0.29,0.2c0.29,0.13,0.6,0.22,0.91,0.29c0.24,0.05,0.28,0.02,0.3-0.22
	c-0.28-0.1-0.55-0.19-0.83,0C62,7.42,61.87,7.37,61.76,7.32c0.01-0.06,0.01-0.1,0.02-0.15C61.67,7.17,61.57,7.17,61.48,7.17z
	 M120.33,6.91c-0.28-0.08-0.56-0.15-0.83,0.03c-0.11,0.07-0.21,0.15-0.34,0.24c0.35-0.01,0.69-0.03,1.02-0.04
	C120.37,7.14,120.36,7.03,120.33,6.91z M88.06,8.09c0.06-0.14,0.17-0.18,0.34-0.16c0.27,0.03,0.42-0.05,0.5-0.24
	c-0.38-0.02-0.7,0.14-1.05,0.21c-0.12,0.02-0.11,0.14,0.01,0.21c0.15,0.09,0.29,0.17,0.46,0.27c0.03-0.02,0.07-0.07,0.15-0.13
	C88.32,8.19,88.21,8.14,88.06,8.09z M42.55,6.13c-0.22-0.17-0.43-0.08-0.63-0.03c-0.21,0.04-0.42-0.11-0.62,0
	c0.29,0.32,0.71,0.19,1.08,0.24C42.44,6.27,42.49,6.21,42.55,6.13z M51.92,5.46c0.3,0.02,0.65-0.11,0.79-0.29
	c-0.22-0.16-0.43-0.18-0.66-0.07C51.89,5.17,51.8,5.28,51.92,5.46z M123.38,11.35c0.37-0.1,0.66-0.19,0.96-0.27
	c0-0.01,0-0.03,0-0.04c-0.15-0.02-0.3-0.04-0.45-0.06c-0.03-0.07-0.06-0.14-0.1-0.22C123.36,10.81,123.48,11.1,123.38,11.35z
	 M76.84,6.74C76.89,6.59,77,6.48,76.8,6.33c-0.06,0.1-0.11,0.18-0.17,0.28c-0.04,0-0.1-0.01-0.15,0c-0.16,0.07-0.39,0.11-0.45,0.22
	c-0.06,0.12-0.15,0.22-0.27,0.36c0.17,0.02,0.29,0.03,0.44,0.04c-0.04-0.13-0.07-0.22-0.1-0.29c0.17-0.1,0.33-0.19,0.51-0.29
	C76.66,6.67,76.73,6.7,76.84,6.74z M106.42,5.41c0.12,0.29,0.28,0.53,0.62,0.62c0.02-0.02,0.04-0.03,0.06-0.05
	c-0.11-0.12-0.22-0.24-0.35-0.37c0.06-0.07,0.12-0.14,0.2-0.23c-0.08-0.06-0.16-0.12-0.25-0.19C106.61,5.27,106.52,5.34,106.42,5.41
	z M54.23,4.15c-0.11,0.18-0.2,0.32-0.29,0.46c-0.03,0.05-0.08,0.1-0.08,0.15c0,0.06,0.04,0.13,0.09,0.16
	c0.08,0.04,0.12-0.01,0.17-0.08c0.14-0.23,0.29-0.45,0.45-0.69C54.42,4.15,54.3,4.15,54.23,4.15z M95.55,4.56
	c0.11-0.06,0.18-0.11,0.27-0.15c0.09-0.04,0.19-0.05,0.19-0.16c-0.37-0.27-0.54-0.2-0.98,0.04C95.22,4.36,95.5,4.28,95.55,4.56z
	 M96.02,10.29c-0.14-0.12-0.17-0.33-0.46-0.29c0.01,0.17-0.1,0.27-0.27,0.34c-0.06,0.03-0.1,0.1-0.17,0.18
	c0.25,0.04,0.42,0.18,0.67,0.11c-0.11-0.08-0.2-0.15-0.32-0.24C95.67,10.36,95.82,10.33,96.02,10.29z M69.67,10.22
	c0.12-0.08,0.23-0.15,0.34-0.23C70,9.96,70,9.94,69.99,9.91c-0.22,0.08-0.32-0.17-0.55-0.09c0.02,0.09,0.04,0.18,0.06,0.27
	c-0.17,0.06-0.32,0.11-0.47,0.16c0,0.02,0.01,0.04,0.01,0.06c0.21,0.01,0.45-0.05,0.65,0.18C69.68,10.34,69.68,10.28,69.67,10.22z
	 M61.31,7.41c-0.15,0.01-0.26,0.02-0.36,0.04c-0.07,0.01-0.16,0.04-0.18,0.08c-0.03,0.06-0.05,0.18-0.01,0.2
	c0.1,0.06,0.24,0.1,0.36,0.1c0.06,0,0.18-0.12,0.17-0.17c-0.04-0.14,0.08-0.17,0.16-0.22c-0.04-0.13-0.09-0.21-0.28-0.2
	C61.2,7.29,61.23,7.33,61.31,7.41z M97.28,9.72c-0.36-0.2-0.77-0.2-1.19-0.06c-0.03,0.01-0.05,0.07-0.11,0.17
	c0.5-0.13,0.95-0.23,1.18,0.28C97.21,9.95,97.24,9.84,97.28,9.72z M70.62,5.14c0,0.02,0,0.04,0,0.07c0.09,0.04,0.17,0.08,0.23,0.11
	C71.03,5.2,71.17,5.1,71.31,5c0.14-0.1,0.38,0.03,0.51-0.13c-0.11-0.04-0.2-0.08-0.3-0.12c-0.05,0.04-0.1,0.08-0.12,0.09
	c-0.12-0.02-0.22-0.05-0.32-0.07c-0.01,0.08-0.02,0.15-0.03,0.22C70.92,5.04,70.77,5.09,70.62,5.14z M75.34,7.54
	c-0.21,0.03-0.37,0.04-0.5,0.09c-0.07,0.02-0.14,0.12-0.15,0.19c-0.02,0.1,0.1,0.14,0.2,0.14c0.15,0,0.3-0.01,0.48-0.02
	C75.36,7.8,75.35,7.69,75.34,7.54z M93.16,10.35C93.04,10.1,93,9.82,92.55,9.81c0.01,0.08,0.02,0.16,0.04,0.23
	c0.02,0.07,0.07,0.14,0.1,0.2C92.78,10.44,92.89,10.47,93.16,10.35z M116.02,7.87c0.06,0.12,0.3,0.15,0.2,0.33
	c-0.09,0-0.18,0-0.29,0c0.06,0.09,0.11,0.17,0.17,0.26c0.19-0.12,0.38-0.23,0.58-0.36c-0.06-0.09-0.11-0.16-0.16-0.23
	C116.34,7.87,116.19,7.87,116.02,7.87z M78.56,3.59c0.04,0.06,0.05,0.09,0.06,0.09c0.27,0.05,0.55,0.1,0.82,0.14
	c0.04,0.01,0.12-0.03,0.12-0.06c0.02-0.07,0.01-0.14,0.01-0.22C79.23,3.53,78.9,3.48,78.56,3.59z M72.08,7.67
	c0.06,0.04,0.11,0.09,0.17,0.12c0.16,0.08,0.51,0.01,0.61-0.11c0.09-0.12,0.03-0.25-0.18-0.37C72.63,7.61,72.28,7.53,72.08,7.67z
	 M126.38,5.96c0.23-0.09,0.44-0.17,0.65-0.25c0.1-0.04,0.17-0.1,0.19-0.22c-0.17,0.01-0.34-0.01-0.48,0.04
	c-0.17,0.05-0.31,0.15-0.48,0.23c0,0.01,0,0.05,0.02,0.08C126.3,5.89,126.34,5.92,126.38,5.96z M106.94,5.18
	c0.36-0.04,0.36-0.04,0.34-0.35c-0.24-0.09-0.47-0.11-0.68,0.08c0.02,0.05,0.04,0.11,0.06,0.18C106.85,4.95,106.87,5.11,106.94,5.18
	z M100.55,4.48c0.33,0.07,0.64,0.06,0.95,0.03c0.13-0.01,0.26-0.05,0.3-0.18c-0.28,0-0.56-0.01-0.84,0
	C100.82,4.34,100.66,4.31,100.55,4.48z M123.23,4.82c-0.12,0.02-0.21,0.03-0.29,0.05c-0.05,0.02-0.12,0.07-0.12,0.11
	c-0.01,0.04,0.05,0.1,0.09,0.13c0.16,0.13,0.33,0.05,0.49,0.01c0.15-0.04,0.17-0.16,0.04-0.23C123.37,4.85,123.28,4.84,123.23,4.82z
	 M92.44,4.07c-0.11-0.03-0.22-0.06-0.39-0.1C92,3.98,91.88,4.02,91.76,4.05c0.05,0.25,0.12,0.31,0.36,0.32
	C92.31,4.38,92.36,4.32,92.44,4.07z M79.92,6.38c0.34-0.02,0.63-0.13,0.71-0.27c0.05-0.08,0.05-0.16-0.05-0.21
	c-0.16,0.05-0.31,0.1-0.46,0.16C79.96,6.11,79.88,6.21,79.92,6.38z M106.92,6.62c0.29-0.09,0.6-0.03,0.92-0.21
	c-0.36-0.11-0.66-0.08-0.97-0.08c0,0.05-0.01,0.08,0,0.12C106.87,6.49,106.89,6.54,106.92,6.62z M77.06,8.11
	c0.69,0.07,0.7,0.06,0.8-0.23c-0.23-0.02-0.45-0.04-0.61-0.06C77.18,7.93,77.13,8.01,77.06,8.11z M124.83,9.78
	c0.32,0.11,0.59,0.3,0.96,0.29c-0.06-0.07-0.13-0.12-0.19-0.18C125.36,9.67,125.19,9.63,124.83,9.78z M112.46,8.86
	c-0.04,0.05-0.07,0.09-0.12,0.13c-0.05,0.04-0.11,0.08-0.21,0.14c0.21,0.08,0.38,0.15,0.56,0.21c0.03,0.01,0.07,0,0.09-0.01
	c0.04-0.02,0.06-0.05,0.11-0.09C112.74,9.12,112.79,8.88,112.46,8.86z M70.8,9.03c-0.18-0.05-0.33-0.1-0.55-0.16
	c0.05,0.24,0.09,0.41,0.13,0.58c0.17,0.04,0.3-0.01,0.29-0.12C70.64,9.21,70.73,9.14,70.8,9.03z M105.97,7.47
	c0.11,0.21-0.06,0.46,0.3,0.53c0.03-0.06,0.05-0.1,0.08-0.14c0.03-0.04,0.07-0.07,0.11-0.11c0.09-0.11,0.02-0.28-0.13-0.3
	C106.23,7.45,106.13,7.47,105.97,7.47z M107.17,9.98c-0.19-0.09-0.36-0.16-0.6-0.09c0.03,0.13,0.06,0.25,0.1,0.4
	c0.18-0.03,0.34-0.06,0.48-0.09C107.16,10.13,107.17,10.06,107.17,9.98z M46.5,8.36c-0.45,0-0.83-0.03-1.17,0.14
	C45.73,8.63,46.11,8.68,46.5,8.36z M108,7.4c0.25,0.09,0.31,0.07,0.41-0.1c0.04-0.07,0.05-0.16,0.17-0.18
	c0.1-0.02,0.2-0.08,0.13-0.17c-0.03-0.04-0.17-0.03-0.26-0.02c-0.06,0.01-0.12,0.05-0.16,0.09C108.2,7.14,108.1,7.27,108,7.4z
	 M86.96,9.05c0.14-0.09,0.24-0.15,0.34-0.21c0.1-0.06,0.19-0.13,0.28-0.2c-0.19-0.13-0.34-0.13-0.57,0.01
	C86.85,8.74,86.89,8.87,86.96,9.05z M71.68,8.72c-0.02,0.15-0.04,0.27-0.05,0.41c0.14,0.03,0.26,0.07,0.39,0.06
	c0.06,0,0.15-0.07,0.18-0.12c0.02-0.03-0.03-0.12-0.08-0.15C72,8.85,71.86,8.8,71.68,8.72z M106.27,27.26c0,0.02,0,0.04,0.01,0.06
	c0.85-0.02,1.69-0.03,2.54-0.05c0-0.02,0-0.05,0-0.07C107.96,27.26,107.11,27.16,106.27,27.26z M86.03,7.26
	c0.08-0.09-0.01-0.13-0.06-0.18c-0.18-0.16-0.44-0.17-0.65-0.27c-0.05-0.02-0.13,0-0.19,0c0.02,0.06,0.03,0.15,0.07,0.16
	c0.29,0.06,0.55,0.2,0.82,0.3C86.01,7.27,86.02,7.26,86.03,7.26z M76.9,6.87c0.01,0.21,0.02,0.36,0.03,0.51
	c0.01,0.11-0.01,0.24,0.17,0.26c0.02,0,0.05-0.02,0.12-0.05c-0.08-0.04-0.13-0.07-0.18-0.1c0.17-0.18,0.17-0.18,0.22-0.44
	c0.01-0.05-0.03-0.13-0.07-0.15C77.1,6.88,77,6.88,76.9,6.87z M116.69,4.98c0.37,0.16,0.86,0.12,1.2-0.07
	C117.49,4.87,117.13,4.89,116.69,4.98z M26.04,6.89c0.01-0.11,0.02-0.19,0.02-0.28c-0.17-0.04-0.33-0.08-0.5-0.12
	c0,0.15,0,0.28,0,0.4C25.72,6.89,25.86,6.89,26.04,6.89z M14.2,5.99c-0.23-0.14-0.47-0.1-0.7-0.1c-0.09,0-0.2,0-0.2,0.09
	c0,0.06,0.06,0.14,0.11,0.18c0.06,0.04,0.16,0.04,0.24,0.07c0.06-0.09,0.1-0.16,0.14-0.23C13.94,5.99,14.07,5.99,14.2,5.99z
	 M94.82,6.12c0.12-0.02,0.2-0.03,0.27-0.04c-0.15-0.1-0.3-0.16-0.46-0.2c-0.09-0.02-0.2,0.06-0.15,0.13
	c0.08,0.13,0.21,0.23,0.34,0.36c0.06-0.04,0.13-0.08,0.2-0.12C94.95,6.21,94.9,6.17,94.82,6.12z M23.7,6.5
	c-0.19-0.06-0.35-0.12-0.55-0.18c0,0.15,0.04,0.31-0.01,0.33c-0.12,0.06-0.15,0.12-0.16,0.23c0.13-0.02,0.24-0.04,0.35-0.06
	C23.29,6.62,23.49,6.59,23.7,6.5z M109.57,4.02c0.24,0.01,0.42-0.01,0.54-0.17c-0.21-0.29-0.21-0.29-0.35-0.31
	C109.7,3.69,109.64,3.84,109.57,4.02z M44.76,7.38c0.1,0.11,0.16,0.25,0.35,0.25c0.14,0,0.28-0.05,0.31-0.19
	C45.19,7.25,45.12,7.24,44.76,7.38z M112.58,6.43c-0.09,0.28,0.3,0.32,0.33,0.52c0.08-0.06,0.14-0.11,0.22-0.16
	C112.98,6.63,112.93,6.38,112.58,6.43z M122.75,11.96c-0.63,0-0.78,0.03-0.93,0.26c0.29-0.04,0.55-0.06,0.8-0.11
	C122.67,12.1,122.7,12.02,122.75,11.96z M110.41,5.58c-0.06,0.1-0.12,0.19-0.21,0.33c0.31-0.04,0.58,0.02,0.74-0.26
	C110.76,5.63,110.59,5.6,110.41,5.58z M82.57,10.11c-0.19-0.16-0.32-0.28-0.46-0.39c-0.04-0.03-0.1-0.05-0.14-0.07
	c-0.01,0.05-0.04,0.12-0.01,0.14c0.11,0.11,0.12,0.22,0.02,0.36C82.17,10.14,82.33,10.12,82.57,10.11z M40.19,5.68
	c0.23-0.09,0.45-0.18,0.68-0.28c-0.09-0.16-0.21-0.17-0.36-0.12C40.19,5.39,40.16,5.42,40.19,5.68z M109.28,6.4
	c-0.19,0-0.38,0-0.57,0c0.03,0.24,0.07,0.27,0.29,0.27C109.23,6.66,109.27,6.62,109.28,6.4z M116.36,4.66
	c0.35,0.07,0.53,0.01,0.66-0.22C116.55,4.36,116.45,4.39,116.36,4.66z M50.68,14.48c-0.07-0.27-0.34-0.24-0.54-0.36
	c-0.03,0.12-0.05,0.21-0.07,0.3c0.18,0.05,0.33,0.1,0.49,0.15C50.6,14.53,50.64,14.5,50.68,14.48z M51.04,8.23
	c-0.47-0.19-0.57-0.16-0.87,0.28c0.18,0.03,0.28-0.08,0.41-0.15C50.69,8.3,50.85,8.28,51.04,8.23z M91.9,5.86
	c0.1-0.02,0.19-0.05,0.28-0.07c0.02-0.01,0.04-0.01,0.06-0.02c0.12-0.07,0.15-0.27,0.04-0.28c-0.12-0.01-0.26,0.03-0.36,0.08
	C91.8,5.64,91.77,5.75,91.9,5.86z M59.62,8.05c-0.21,0.11-0.41,0.21-0.64,0.34c0.36,0.08,0.61-0.02,0.86-0.17
	C59.75,8.14,59.68,8.09,59.62,8.05z M81.01,7.7c-0.5-0.03-0.73,0.01-0.9,0.17C80.46,8,80.74,7.84,81.01,7.7z M106.42,7.31
	c0.62-0.01,0.62-0.01,0.85-0.17C106.92,6.95,106.68,7.16,106.42,7.31z M120.45,26.95c-0.48-0.11-0.9-0.06-1.31,0
	c0.24,0.11,0.56-0.09,0.73,0.16C120.05,27.07,120.22,27.02,120.45,26.95z M63.15,10.84c-0.08-0.16-0.15-0.28-0.24-0.45
	c-0.13,0.2-0.22,0.34-0.17,0.54C62.88,10.9,63,10.87,63.15,10.84z M91.08,9.32c0.09-0.13,0.15-0.22,0.21-0.31
	c-0.11-0.11-0.24-0.16-0.35-0.07C90.87,9,90.82,9.11,90.84,9.19C90.86,9.24,90.99,9.27,91.08,9.32z M8.68,14.96
	c0,0.02,0,0.04,0.01,0.06c0.15,0.06,0.31,0.13,0.49,0.2c0.03-0.16,0.23-0.24,0.15-0.44c-0.11,0.06-0.19,0.13-0.28,0.16
	C8.93,14.97,8.8,14.96,8.68,14.96z M25.36,9.41c-0.17,0.09-0.33-0.09-0.48,0.05c0.01,0.07,0.02,0.16,0.04,0.26
	c0.1-0.01,0.17-0.01,0.24-0.03c0.06-0.01,0.12-0.05,0.18-0.07c0.06-0.02,0.13-0.04,0.18-0.06C25.45,9.5,25.4,9.45,25.36,9.41z
	 M63.5,7.99c0.14-0.13,0.37-0.05,0.49-0.23c-0.34,0-0.59,0.07-0.75,0.34c0.2,0.04,0.38,0.1,0.52-0.08C63.68,8.01,63.61,8,63.5,7.99z
	 M53.79,9.65c0.2-0.03,0.35-0.04,0.5-0.07c0.04-0.01,0.1-0.09,0.08-0.13c-0.02-0.05-0.09-0.11-0.15-0.11
	c-0.11-0.01-0.22,0.02-0.34,0.04C53.87,9.46,53.84,9.53,53.79,9.65z M131.22,18.11c-0.15-0.13-0.25-0.22-0.37-0.33
	c-0.07,0.01-0.17,0.01-0.29,0.02c0.06,0.12,0.12,0.22,0.16,0.31C130.89,18.11,131.02,18.11,131.22,18.11z M51.23,5.88
	c-0.3-0.09-0.49,0.08-0.71,0.13c-0.02,0.01-0.02,0.08-0.03,0.13C50.79,6.14,51.02,6.06,51.23,5.88z M130.68,19.8
	c-0.18,0.02-0.37-0.03-0.52,0.12c0.09,0.21,0.3,0.18,0.48,0.21C130.66,20.01,130.67,19.92,130.68,19.8z M43.3,5.47
	c-0.17-0.07-0.31-0.13-0.46-0.18c-0.02-0.01-0.05,0.02-0.1,0.04c0.05,0.02,0.09,0.03,0.13,0.05c-0.02,0.07-0.05,0.15-0.07,0.22
	C43.14,5.69,43.15,5.68,43.3,5.47z M111.84,9.86c0.03-0.16-0.01-0.36,0.24-0.45c-0.14,0.01-0.29,0.02-0.43,0.04
	C111.52,9.77,111.54,9.81,111.84,9.86z M83.25,5.22c-0.28-0.17-0.49-0.12-0.65,0.13C83.07,5.36,83.07,5.36,83.25,5.22z
	 M124.09,25.83c0.03,0.25-0.31,0.08-0.37,0.24c0.28,0.15,0.45-0.13,0.73-0.09c-0.08-0.11-0.14-0.18-0.2-0.26
	c-0.1,0.02-0.2,0.03-0.31,0.05C124.01,25.8,124.05,25.82,124.09,25.83z M92.71,3.92c0.14-0.01,0.27-0.01,0.22-0.19
	c-0.26-0.02-0.49-0.25-0.8-0.06c0.13,0.21,0.37,0,0.53,0.1C92.67,3.82,92.69,3.87,92.71,3.92z M119.35,11.79
	c-0.35-0.18-0.43-0.17-0.71,0.03C118.87,11.92,119.09,11.93,119.35,11.79z M102.78,5.24c0.02,0.01,0.04,0.03,0.05,0.04
	c0.18-0.09,0.41-0.06,0.62-0.23c-0.18-0.05-0.33-0.09-0.48-0.13c-0.04,0.06-0.07,0.11-0.1,0.15C102.84,5.13,102.81,5.19,102.78,5.24
	z M51.51,7.77C51.39,7.9,51.31,8,51.22,8.1c0.01,0.02,0.03,0.03,0.04,0.05c0.18-0.05,0.36-0.1,0.54-0.16
	c0.03-0.01,0.02-0.08,0.04-0.14C51.72,7.82,51.62,7.8,51.51,7.77z M117.57,7.58c-0.3-0.06-0.57-0.12-0.89-0.19
	C116.95,7.69,117.19,7.74,117.57,7.58z M105.07,10.07c0.05,0.09,0.05,0.23,0.23,0.22c0.08,0,0.18-0.07,0.22-0.13
	c0.03-0.03-0.01-0.15-0.06-0.17C105.33,9.94,105.19,9.95,105.07,10.07z M128.75,13.65c-0.02,0.2,0.13,0.22,0.25,0.24
	c0.15,0.03,0.3,0.03,0.43-0.15C129.19,13.71,128.99,13.68,128.75,13.65z M126.74,5.13c-0.19-0.14-0.23-0.14-0.61,0.06
	C126.35,5.37,126.35,5.37,126.74,5.13z M78.23,7c0.31,0.21,0.46,0.18,0.56-0.13C78.56,6.8,78.54,6.81,78.23,7z M125.5,6.96
	c-0.08-0.08-0.16-0.16-0.25-0.24c-0.09-0.08-0.18-0.06-0.25,0.03c-0.05,0.07-0.05,0.14,0.06,0.18c0.06,0.02,0.11,0.05,0.16,0.09
	C125.34,7.1,125.42,7.07,125.5,6.96z M82.63,3.29c-0.32-0.04-0.58-0.07-0.86-0.1c0.03,0.14,0.15,0.16,0.28,0.18
	C82.24,3.41,82.43,3.45,82.63,3.29z M48.69,6.81c0.17-0.07,0.33-0.13,0.49-0.2c-0.01-0.02-0.01-0.04-0.02-0.06
	c-0.25,0.07-0.48-0.09-0.79,0c0.09,0.05,0.15,0.08,0.19,0.12C48.61,6.7,48.64,6.74,48.69,6.81z M44.5,6.75
	c-0.47-0.21-0.64-0.25-0.79-0.16C43.9,6.85,44.19,6.78,44.5,6.75z M116.83,3.88c-0.31-0.12-0.48-0.07-0.73,0.21
	C116.36,4.07,116.61,4.06,116.83,3.88z M72.62,8.63c0.29,0.08,0.29,0.08,0.72-0.34C73.04,8.32,72.82,8.43,72.62,8.63z M118.29,3.83
	c0.17,0.08,0.21,0.24,0.39,0.19c0.05-0.01,0.12-0.07,0.13-0.11c0.03-0.12-0.04-0.19-0.18-0.23C118.54,3.71,118.44,3.76,118.29,3.83z
	 M46.75,8.88c0-0.09,0-0.18,0-0.27c-0.06,0-0.11,0.01-0.15,0.01c-0.14,0-0.19,0.09-0.2,0.18c0,0.06,0.03,0.16,0.06,0.16
	c0.07,0.01,0.16-0.03,0.24-0.05C46.72,8.91,46.73,8.89,46.75,8.88z M111.76,5.62c0.36,0.05,0.43-0.03,0.31-0.34
	C111.88,5.34,111.72,5.4,111.76,5.62z M82.72,5.6c0.21,0.27,0.43,0.33,0.72,0.19C83.24,5.64,82.98,5.64,82.72,5.6z M121.2,9.18
	c0.12,0.08,0.19,0.15,0.28,0.17c0.13,0.03,0.25-0.01,0.32-0.14C121.65,9.06,121.47,9.06,121.2,9.18z M25.88,5.31
	c-0.02-0.01-0.05-0.03-0.07-0.04c-0.06,0.05-0.12,0.13-0.17,0.13c-0.21-0.01-0.3,0.11-0.38,0.21c0.17,0.01,0.34,0.02,0.52,0.03
	c-0.01-0.06-0.03-0.13-0.02-0.17C25.78,5.42,25.84,5.37,25.88,5.31z M81.45,9.53c-0.06-0.03-0.15-0.09-0.24-0.09
	c-0.11,0-0.21,0.06-0.21,0.18c0,0.09,0.08,0.13,0.18,0.12C81.33,9.74,81.46,9.66,81.45,9.53z M111.36,6.77
	c-0.25,0.02-0.36-0.19-0.64-0.13c0.1,0.12,0.17,0.22,0.25,0.32c0.12-0.04,0.21-0.07,0.3-0.11C111.29,6.85,111.3,6.83,111.36,6.77z
	 M10.39,5.7c0.45,0.18,0.56,0.2,0.65,0.11c-0.03-0.05-0.05-0.11-0.08-0.15c-0.16,0-0.3,0-0.45,0C10.49,5.66,10.47,5.68,10.39,5.7z
	 M45.16,5.67c-0.02,0.03-0.07,0.08-0.08,0.13c-0.01,0.1,0.12,0.21,0.23,0.19c0.07-0.01,0.15-0.08,0.17-0.13
	C45.51,5.77,45.34,5.66,45.16,5.67z M95.31,7.13c0.19-0.2,0.33-0.35,0.51-0.54c-0.18,0.03-0.32,0.05-0.45,0.07
	C95.35,6.82,95.34,6.94,95.31,7.13z M76.14,3.45c-0.24-0.1-0.39-0.06-0.53,0.15C75.92,3.75,75.96,3.68,76.14,3.45z M82.94,7.15
	c-0.11-0.22-0.2-0.26-0.53-0.24C82.53,7.14,82.59,7.16,82.94,7.15z M50.38,7.03c0.05,0.07,0.11,0.14,0.19,0.23
	c0.12-0.09,0.33-0.11,0.26-0.27c-0.07-0.15-0.24-0.07-0.38-0.03C50.43,6.96,50.43,6.97,50.38,7.03z M63.68,6
	c-0.04-0.07-0.07-0.12-0.1-0.18c0.11-0.04,0.21-0.08,0.36-0.14c-0.21,0.02-0.35,0.04-0.46,0.05c-0.09,0.11-0.16,0.19-0.27,0.33
	C63.41,6.03,63.54,6.01,63.68,6z M41.89,5.6c0.15,0.01,0.3,0.03,0.45,0.03c0.11,0,0.19-0.06,0.14-0.17
	C42.13,5.37,42.03,5.4,41.89,5.6z M97.95,7.34c-0.02,0.17-0.04,0.31,0.15,0.33c0.17,0.02,0.18-0.12,0.22-0.26
	C98.21,7.38,98.1,7.36,97.95,7.34z M83.3,8.01c0.31-0.03,0.56-0.06,0.84-0.09C83.82,7.73,83.75,7.74,83.3,8.01z M105.88,28.73
	c0.27,0.08,0.84,0.05,1.03-0.05C106.52,28.69,106.2,28.66,105.88,28.73z M9.7,13.37c-0.15-0.09-0.3-0.05-0.51,0
	c0.12,0.1,0,0.27,0.18,0.33C9.49,13.59,9.59,13.49,9.7,13.37z M43.25,6.88c0.26,0.23,0.4,0.23,0.74,0.05
	c-0.09-0.03-0.14-0.06-0.2-0.06c-0.06,0-0.13,0.03-0.19,0.03C43.48,6.89,43.37,6.88,43.25,6.88z M124.97,5.1
	c-0.27-0.05-0.43,0.06-0.61,0.17c0.18,0.02,0.35,0.04,0.53,0.05C124.92,5.24,124.94,5.18,124.97,5.1z M62.37,7.99
	c-0.14-0.14-0.38-0.2-0.77-0.2C61.82,7.99,62.08,8,62.37,7.99z M69.47,6.64c0.18-0.03,0.33-0.05,0.55-0.09
	c-0.24-0.13-0.42-0.18-0.65-0.16C69.41,6.49,69.44,6.57,69.47,6.64z M60.22,10.04c0.24-0.02,0.45,0,0.61-0.15
	C60.5,9.75,60.44,9.76,60.22,10.04z M87.94,6.42c-0.22-0.09-0.39-0.04-0.58,0.05c0.07,0.08,0.14,0.14,0.21,0.22
	C87.7,6.59,87.81,6.51,87.94,6.42z M68.19,7.11c-0.14,0.03-0.26,0.05-0.46,0.09c0.2,0.11,0.28,0.24,0.46,0.24
	C68.19,7.33,68.19,7.24,68.19,7.11z M55.25,9.73c0.31,0.06,0.56,0.09,0.79-0.06C55.75,9.44,55.54,9.65,55.25,9.73z M116.26,6.19
	c0.15,0.13,0.29,0.16,0.45,0.14c0.04,0,0.08-0.06,0.1-0.09c0.01-0.02-0.03-0.07-0.06-0.09C116.59,6.09,116.44,6.09,116.26,6.19z
	 M37.23,5.53c-0.09-0.04-0.18-0.09-0.28-0.14c-0.09,0.13-0.01,0.17,0.06,0.24c0.04,0.05-0.01,0.16-0.02,0.25
	C37.22,5.79,37.22,5.79,37.23,5.53z M10.16,14.76c-0.1-0.01-0.2-0.01-0.35-0.02c0.08-0.04,0.11-0.05,0.16-0.07
	c-0.08-0.04-0.15-0.07-0.22-0.1c-0.06-0.03-0.12-0.07-0.24-0.14C9.69,14.84,9.79,14.89,10.16,14.76z M26.16,9.62
	c0.32,0.21,0.51,0.24,0.68,0.09C26.6,9.7,26.44,9.48,26.16,9.62z M80.41,5.57c0.21,0.11,0.42,0.17,0.66,0.07
	C80.87,5.49,80.63,5.54,80.41,5.57z M9.39,13.23c0.23-0.01,0.42,0.13,0.67,0.05C9.56,13.04,9.56,13.04,9.39,13.23z M40.87,7.47
	c0,0.11,0,0.17,0,0.26c0.16-0.03,0.36,0.07,0.41-0.17C41.16,7.53,41.04,7.51,40.87,7.47z M132.19,20.27
	c0.01-0.02,0.02-0.05,0.02-0.07c-0.1-0.07-0.19-0.14-0.29-0.2c-0.04-0.02-0.12,0-0.18,0c0.01,0.06,0,0.15,0.03,0.17
	C131.91,20.22,132.05,20.24,132.19,20.27z M17.36,6.39c0.18,0.17,0.3,0.19,0.7,0.09C17.81,6.4,17.59,6.36,17.36,6.39z M122.46,9.66
	c-0.19-0.02-0.27-0.22-0.46-0.11c-0.08,0.05-0.1,0.12-0.02,0.19C122.13,9.74,122.29,9.85,122.46,9.66z M13.71,6.34
	c0.03,0.08,0.05,0.14,0.07,0.22c0.18-0.06,0.33-0.11,0.48-0.16c-0.01-0.02-0.01-0.04-0.02-0.06C14.08,6.34,13.91,6.34,13.71,6.34z
	 M96.79,8.13c-0.02,0.01-0.04,0.02-0.05,0.03c0.02,0.12,0.04,0.24,0.06,0.38c0.12-0.02,0.22-0.04,0.37-0.06
	C97.02,8.34,96.9,8.24,96.79,8.13z M59.04,8.89c-0.2,0.1-0.36,0.19-0.53,0.27c0.08,0.12,0.17,0.12,0.25,0.05
	C58.86,9.13,59.1,9.14,59.04,8.89z M1.02,27.48c0.19,0.02,0.3,0.08,0.26,0.25c0.14-0.05,0.27-0.1,0.4-0.15
	C1.46,27.59,1.31,27.32,1.02,27.48z M125.1,22.35c0.38,0.13,0.57,0.12,0.7-0.06C125.57,22.31,125.38,22.33,125.1,22.35z
	 M124.18,7.13c0-0.02,0-0.05,0-0.07c-0.13-0.08-0.26-0.16-0.4-0.25c0.02,0.15,0.04,0.25,0.06,0.39
	C123.96,7.17,124.07,7.15,124.18,7.13z M68.79,4.58c0.28,0.15,0.34,0.14,0.53-0.04C69.14,4.39,69,4.5,68.79,4.58z M119.62,4.02
	c0.03,0.2,0.04,0.22,0.12,0.23c0.13,0,0.28,0.03,0.36-0.16C119.93,4.06,119.78,4.04,119.62,4.02z M48.58,6.14
	c0.23-0.08,0.39-0.13,0.59-0.2C48.84,5.8,48.74,5.83,48.58,6.14z M67.16,6.19c-0.03,0.02-0.05,0.03-0.08,0.05
	c0.03,0.07,0.05,0.14,0.09,0.2c0.02,0.03,0.09,0.03,0.14,0.05c0.07-0.06,0.12-0.11,0.21-0.19C67.37,6.26,67.27,6.22,67.16,6.19z
	 M64.36,9.24c-0.2,0.03-0.42-0.11-0.64,0.04C63.98,9.42,64.18,9.4,64.36,9.24z M126.68,5.97c0.46,0.16,0.48,0.16,0.7,0.1
	C127.17,5.93,127.17,5.93,126.68,5.97z M88.38,6.94c0.33,0.14,0.33,0.14,0.49-0.07C88.7,6.83,88.54,6.79,88.38,6.94z M8.69,28.78
	c-0.36-0.09-0.67-0.09-0.98,0C8.02,28.78,8.32,28.78,8.69,28.78z M110.84,8.3c0.36,0.02,0.36,0.02,0.47-0.19
	C111.13,8.1,110.97,8.12,110.84,8.3z M71.93,9.99c-0.1,0.07-0.2,0.13-0.29,0.19c0.06,0.11,0.14,0.15,0.24,0.07
	C71.98,10.18,72.05,10.08,71.93,9.99z M46.3,5.8c0.28,0,0.28,0,0.25-0.25C46.33,5.58,46.33,5.58,46.3,5.8z M22.25,6.76
	c-0.31-0.06-0.31-0.06-0.53,0.05C21.95,6.93,21.95,6.93,22.25,6.76z M115.36,9.37c-0.01-0.12-0.02-0.24-0.03-0.37
	C115.11,9.14,115.11,9.22,115.36,9.37z M78.55,10.97c0.26,0.22,0.37-0.1,0.56-0.08C78.91,10.87,78.72,10.82,78.55,10.97z
	 M76.41,11.44c0.22-0.02,0.45,0.08,0.69-0.1c-0.25-0.05-0.47,0.11-0.66-0.09C76.42,11.34,76.42,11.38,76.41,11.44z M118.12,9.12
	c0.07,0.12,0.12,0.2,0.18,0.3c0.09-0.07,0.18-0.13,0.3-0.23C118.42,9.16,118.29,9.15,118.12,9.12z M52.38,6.55
	c0.31,0.1,0.36,0.09,0.52-0.09C52.72,6.43,52.56,6.43,52.38,6.55z M94.22,7.49c0.19,0.03,0.37,0.09,0.5-0.09
	C94.52,7.32,94.37,7.31,94.22,7.49z M127.62,21.5c-0.26-0.18-0.26-0.18-0.51-0.04C127.31,21.47,127.47,21.48,127.62,21.5z
	 M29.18,5.43c0.02,0.16,0.09,0.25,0.26,0.21c0.13-0.03,0.11-0.12,0.05-0.21C29.4,5.43,29.3,5.43,29.18,5.43z M41.25,5.83
	c-0.19-0.02-0.34,0-0.45,0.13c-0.02,0.03,0.01,0.1,0.04,0.14c0.01,0.01,0.13-0.02,0.13-0.02C40.95,5.9,41.15,5.91,41.25,5.83z
	 M88.12,9.42c0.16,0,0.33,0.07,0.48-0.04C88.41,9.24,88.41,9.24,88.12,9.42z M116.81,6.59c-0.02,0.01-0.04,0.02-0.06,0.04
	c0.02,0.07,0.03,0.16,0.08,0.21c0.03,0.03,0.13,0.02,0.2,0.02c0-0.05,0.03-0.12,0-0.14C116.97,6.67,116.88,6.64,116.81,6.59z
	 M53.41,7.27c-0.12-0.16-0.12-0.17-0.19-0.15c-0.12,0.03-0.26,0.04-0.28,0.21C53.11,7.31,53.24,7.29,53.41,7.27z M20.64,6.94
	c0.09,0.01,0.15,0.01,0.17,0.01c0.04-0.1,0.06-0.18,0.09-0.25c0.05-0.1,0-0.13-0.08-0.13C20.76,6.69,20.71,6.8,20.64,6.94z
	 M46.84,6.99c0.01,0.09,0.02,0.16,0.03,0.23c0.18,0,0.31,0,0.29-0.2C47.05,7.01,46.96,7,46.84,6.99z M72.85,9.61
	c0.31,0.06,0.35,0.05,0.49-0.14C73.14,9.45,72.96,9.44,72.85,9.61z M23.81,10.14c-0.31-0.02-0.2,0.16-0.26,0.29
	c0.12-0.03,0.19-0.05,0.26-0.07C23.81,10.29,23.81,10.23,23.81,10.14z M57.05,4.8c-0.15-0.02-0.3-0.16-0.48-0.03
	C56.73,4.94,56.89,4.85,57.05,4.8z M76.38,7.52c-0.14-0.02-0.27-0.03-0.25,0.13c0,0.04,0.1,0.11,0.14,0.11
	C76.45,7.73,76.4,7.62,76.38,7.52z M109.36,9.33c-0.15-0.14-0.3-0.17-0.52-0.11C108.99,9.35,109.13,9.42,109.36,9.33z M76.34,5.18
	c0.2,0.07,0.3,0.06,0.35-0.06c0.01-0.03-0.01-0.09-0.04-0.11c-0.02-0.02-0.09-0.01-0.11,0C76.47,5.05,76.41,5.11,76.34,5.18z
	 M104.79,8.98c-0.03,0.11-0.05,0.17-0.07,0.24c0.15,0,0.26,0,0.38,0c0-0.01,0.01-0.03,0.01-0.04
	C105.02,9.12,104.93,9.07,104.79,8.98z M73.02,9.19c0.01,0.02,0.03,0.04,0.04,0.06c0.1-0.03,0.2-0.06,0.31-0.1
	c-0.08-0.1-0.09-0.22-0.26-0.18C73.09,9.04,73.05,9.12,73.02,9.19z M86.79,7.37c0.32,0.09,0.32,0.09,0.5-0.01
	C87.1,7.27,87.1,7.27,86.79,7.37z M77.06,10.44c0.17,0.13,0.35,0.15,0.59,0.04C77.44,10.43,77.27,10.36,77.06,10.44z M9.32,14.47
	c-0.3-0.05-0.31-0.04-0.43,0.18C9.04,14.57,9.23,14.64,9.32,14.47z M130.96,20.74c0.1-0.08,0.17-0.15,0.25-0.21
	c-0.01-0.02-0.03-0.04-0.04-0.06c-0.12,0.02-0.24,0.03-0.41,0.05C130.85,20.62,130.9,20.67,130.96,20.74z M34.96,6.03
	c0.23,0.04,0.35-0.02,0.44-0.16C35.17,5.78,35.1,5.91,34.96,6.03z M107.24,28.43c0.18-0.02,0.37,0.08,0.53-0.05
	C107.59,28.35,107.41,28.32,107.24,28.43z M124.9,6.34c-0.2,0-0.35-0.13-0.5,0.02C124.61,6.5,124.68,6.51,124.9,6.34z M119.08,9.88
	c0.12,0.32,0.34,0.16,0.5,0.2c0.01-0.02,0.01-0.04,0.02-0.05C119.45,9.99,119.3,9.94,119.08,9.88z M96.77,6.58
	c-0.1-0.19-0.1-0.19-0.36-0.11C96.48,6.69,96.48,6.69,96.77,6.58z M65.16,10.56c-0.2-0.04-0.35-0.06-0.5,0.04
	C64.86,10.74,64.9,10.74,65.16,10.56z M81.91,10.3c0.07,0.01,0.12,0.03,0.15,0.02c0.15-0.07,0.27-0.08,0.41,0.03
	c0.09,0.06,0.11-0.03,0.11-0.13C82.36,10.25,82.14,10.13,81.91,10.3z M79.6,7.38c-0.15,0.02-0.29,0.05-0.49,0.08
	C79.39,7.59,79.39,7.59,79.6,7.38z M84.02,8.31c0.15,0.02,0.27,0.02,0.37-0.08C84.18,8.06,84.14,8.07,84.02,8.31z M99.94,6.92
	c-0.19-0.14-0.24-0.14-0.37,0.05C99.7,7,99.83,7.04,99.94,6.92z M90.17,9.15c-0.26-0.04-0.27-0.03-0.38,0.19
	C89.99,9.33,89.99,9.33,90.17,9.15z M94.37,4.05c0.23,0.04,0.35,0.02,0.36-0.08c0-0.04-0.07-0.09-0.12-0.15
	C94.52,3.92,94.45,3.98,94.37,4.05z M48.56,7.03c-0.14-0.13-0.26-0.15-0.37-0.05c-0.02,0.02-0.04,0.07-0.03,0.1
	c0.01,0.03,0.07,0.06,0.1,0.05C48.35,7.11,48.44,7.08,48.56,7.03z M41.68,8.03c-0.19-0.08-0.37-0.08-0.59,0.02
	C41.31,8.06,41.5,8.14,41.68,8.03z M110.65,7.27c-0.03,0.01-0.06,0.03-0.09,0.04c0,0.08,0,0.17,0,0.32c0.12-0.09,0.23-0.14,0.24-0.2
	C110.81,7.38,110.71,7.32,110.65,7.27z M77.37,3.68c0-0.12,0-0.18,0-0.26c-0.12,0.01-0.21,0.02-0.3,0.03c0,0.02-0.01,0.04-0.01,0.06
	C77.14,3.56,77.22,3.6,77.37,3.68z M109.68,28.36c0-0.03,0-0.05-0.01-0.08c-0.18-0.03-0.36-0.01-0.53,0.04c0,0.02,0,0.04,0.01,0.06
	C109.33,28.37,109.51,28.37,109.68,28.36z M55.21,6.03c0.18,0.08,0.24-0.06,0.36-0.12C55.31,5.79,55.31,5.79,55.21,6.03z
	 M102.64,4.54c0.08,0.1,0.12,0.18,0.16,0.19c0.12,0.01,0.21-0.05,0.24-0.19C102.93,4.54,102.82,4.54,102.64,4.54z M78.85,11.35
	c-0.14-0.02-0.29-0.06-0.44,0.03C78.58,11.53,78.72,11.45,78.85,11.35z M101.11,6.79c-0.15,0.02-0.2,0.08-0.18,0.17
	c0.02,0.1,0.1,0.15,0.22,0.14C101.13,7,101.12,6.9,101.11,6.79z M127.39,24.26c0.02,0.12,0.07,0.17,0.18,0.16
	c0.1-0.01,0.2-0.02,0.18-0.16C127.64,24.26,127.53,24.26,127.39,24.26z M82.96,9.85c0.14-0.02,0.26-0.05,0.29-0.19
	C82.93,9.64,82.93,9.64,82.96,9.85z M65.1,8.9c-0.28-0.06-0.29-0.05-0.39,0.23C64.87,9.04,64.97,8.98,65.1,8.9z M25.02,5.93
	c-0.09,0.13-0.11,0.24,0.02,0.39c0.07-0.13,0.12-0.22,0.17-0.31C25.14,5.98,25.09,5.96,25.02,5.93z M69.73,9.42
	c0.09,0.24,0.11,0.25,0.34,0.16C69.94,9.52,69.84,9.47,69.73,9.42z M78.6,9.77c0.3,0.18,0.32,0.18,0.45,0
	C78.92,9.77,78.8,9.77,78.6,9.77z M5.84,16.84c0.25,0.18,0.32-0.06,0.51-0.02C6.14,16.63,6.04,16.86,5.84,16.84z M54.63,4.94
	c-0.15-0.09-0.27-0.12-0.41-0.01C54.41,5.03,54.41,5.03,54.63,4.94z M100.12,6.47c0.23,0.06,0.31-0.04,0.41-0.16
	C100.31,6.24,100.23,6.34,100.12,6.47z M9.45,6.04c-0.22-0.1-0.22-0.1-0.38,0.03C9.19,6.06,9.32,6.05,9.45,6.04z M84.63,8.57
	c-0.26-0.03-0.26-0.03-0.4,0.2C84.38,8.69,84.48,8.64,84.63,8.57z M9.53,7.1c0.01,0.02,0.02,0.04,0.02,0.06
	c0.09-0.03,0.18-0.07,0.27-0.1c0.1-0.03,0.21-0.05,0.31-0.08C9.91,6.95,9.71,7.01,9.53,7.1z M107.62,28.73
	c-0.32-0.1-0.42-0.1-0.57,0C107.24,28.73,107.4,28.73,107.62,28.73z M19.78,6.73c0.16,0.02,0.27,0.03,0.38,0.04
	C20.07,6.61,19.97,6.57,19.78,6.73z M62.69,6.72c0.16,0.03,0.35,0.13,0.56-0.06C63.02,6.69,62.86,6.7,62.69,6.72z M87.99,6.81
	c0.15,0.06,0.24,0.05,0.28-0.02c0.01-0.03-0.01-0.06-0.01-0.1c-0.08,0.02-0.15,0.03-0.23,0.05C88.02,6.75,88.01,6.78,87.99,6.81z
	 M44.08,5.41c0.19,0.05,0.3,0.02,0.36-0.12C44.27,5.21,44.17,5.25,44.08,5.41z M71.78,7.88c-0.05,0.05-0.11,0.11-0.1,0.12
	c0.05,0.04,0.1,0.08,0.16,0.1c0.02,0.01,0.07-0.05,0.1-0.08C71.9,7.97,71.85,7.93,71.78,7.88z M5.95,28.12c0-0.02,0-0.04,0-0.06
	c-0.12-0.01-0.24-0.07-0.45,0.03C5.7,28.1,5.82,28.11,5.95,28.12z M123.26,11.92c-0.17,0.02-0.27,0.02-0.42,0.04
	C123.09,12.14,123.09,12.14,123.26,11.92z M50.14,6.16c-0.06,0.06-0.13,0.11-0.21,0.19C50.17,6.39,50.17,6.39,50.14,6.16z
	 M87.89,9.85c0.15,0.03,0.26,0.02,0.27-0.1c0-0.03-0.05-0.09-0.08-0.1C87.91,9.62,87.95,9.75,87.89,9.85z M70.25,7.03
	c0.19,0.01,0.32,0.02,0.4-0.13C70.51,6.89,70.38,6.86,70.25,7.03z M114.63,10.3c-0.16-0.04-0.31-0.04-0.42,0.05
	c0.01,0.02,0.01,0.04,0.02,0.06C114.36,10.38,114.49,10.34,114.63,10.3z M59.51,9.53c0.08-0.08,0.16-0.16,0.24-0.24
	C59.54,9.28,59.49,9.38,59.51,9.53z M24.54,10.13c-0.07-0.03-0.14-0.07-0.16-0.06c-0.05,0.03-0.1,0.08-0.11,0.13
	c-0.01,0.03,0.06,0.08,0.09,0.11C24.4,10.27,24.44,10.23,24.54,10.13z M6.49,28.07c-0.01-0.02-0.01-0.03-0.02-0.05
	c-0.1,0.01-0.2,0.01-0.3,0.02c0,0.02,0.01,0.04,0.01,0.07C6.28,28.09,6.39,28.08,6.49,28.07z M117.21,3.56
	c0.02-0.13-0.06-0.17-0.15-0.16c-0.05,0.01-0.08,0.08-0.16,0.17C117.06,3.57,117.14,3.56,117.21,3.56z M26.56,5.57
	c0-0.02,0.01-0.05,0.01-0.07c-0.09-0.07-0.18-0.1-0.35,0.03C26.36,5.55,26.46,5.56,26.56,5.57z M65.17,9.62
	c-0.3-0.03-0.3-0.03-0.36,0.18C64.94,9.73,65.03,9.69,65.17,9.62z M126.52,6.93c0-0.03,0-0.05,0-0.08c-0.12,0-0.23-0.06-0.41,0.08
	C126.29,6.93,126.4,6.93,126.52,6.93z M63.19,6.4C63,6.46,62.89,6.5,62.74,6.56C62.98,6.66,63.07,6.57,63.19,6.4z M103.3,10.42
	c0.04,0.13,0.05,0.19,0.07,0.27c0.09-0.04,0.15-0.07,0.24-0.12C103.51,10.52,103.44,10.48,103.3,10.42z M82.74,7.72
	c-0.02-0.02-0.03-0.05-0.05-0.07c-0.06,0.02-0.14,0.03-0.17,0.07c-0.04,0.05-0.1,0.13,0.04,0.18C82.62,7.84,82.68,7.78,82.74,7.72z
	 M109.36,9.9c0.3,0.04,0.3,0.04,0.5-0.1C109.68,9.83,109.55,9.86,109.36,9.9z M51.47,6.54c-0.11-0.05-0.18-0.02-0.22,0.07
	c-0.01,0.02,0.01,0.06,0.03,0.07c0.1,0.05,0.15-0.02,0.2-0.08C51.48,6.59,51.47,6.57,51.47,6.54z M104.4,5.09
	c-0.15-0.07-0.24-0.13-0.35-0.04C104.12,5.16,104.22,5.14,104.4,5.09z M62.88,6.15c-0.37,0.08-0.39,0.09-0.27,0.24
	C62.69,6.32,62.76,6.26,62.88,6.15z M11.21,30.26c-0.22-0.12-0.22-0.12-0.32,0.02C11.01,30.27,11.11,30.27,11.21,30.26z M66,3.56
	c0.1,0.09,0.19,0.04,0.28-0.01C66.12,3.42,66.12,3.42,66,3.56z M118.32,11.91c-0.24-0.1-0.24-0.1-0.43,0.05
	C118.06,11.94,118.17,11.92,118.32,11.91z M44.89,14.3c-0.05,0.1-0.08,0.17,0.04,0.22c0.02,0.01,0.07,0,0.08-0.02
	C45.07,14.41,45.03,14.35,44.89,14.3z M125.84,24.9c0,0.02,0,0.05,0,0.07c0.1-0.01,0.21-0.01,0.31-0.02c0-0.02,0-0.04,0-0.06
	C126.04,24.9,125.94,24.9,125.84,24.9z M95.24,7.31c0-0.02,0-0.05,0-0.07C95.16,7.21,95.08,7.1,95,7.25c-0.01,0.02,0,0.05,0,0.1
	C95.08,7.34,95.16,7.32,95.24,7.31z M98.48,7.89c-0.22-0.14-0.22-0.14-0.34,0.08C98.26,7.94,98.36,7.92,98.48,7.89z M105.77,4.42
	c-0.1-0.15-0.1-0.15-0.28-0.1C105.58,4.36,105.67,4.39,105.77,4.42z M68.3,4.65c0.09-0.04,0.18-0.07,0.31-0.13
	C68.3,4.47,68.3,4.47,68.3,4.65z M113.24,7.59c-0.13-0.09-0.22-0.1-0.31,0.01C113.02,7.7,113.11,7.72,113.24,7.59z M97.39,7.69
	c0.01-0.03,0.01-0.07,0.02-0.1c-0.1-0.03-0.2-0.11-0.38,0.04C97.19,7.66,97.29,7.68,97.39,7.69z M59.55,5.51
	c0.03,0.02,0.05,0.03,0.08,0.05c0.05-0.05,0.11-0.1,0.2-0.19C59.61,5.35,59.54,5.39,59.55,5.51z M130.88,17.1
	c0.02,0.15,0.02,0.15,0.23,0.13C131.02,17.18,130.96,17.15,130.88,17.1z M41.28,5.5c0-0.03-0.01-0.05-0.01-0.08
	c-0.12,0.02-0.24,0.04-0.36,0.06c0,0.02,0.01,0.04,0.01,0.06C41.04,5.53,41.16,5.52,41.28,5.5z M53.02,5.7
	C53.01,5.68,53,5.66,52.99,5.64c-0.12,0.05-0.24,0.1-0.35,0.15c0.01,0.01,0.02,0.03,0.02,0.04C52.78,5.79,52.9,5.74,53.02,5.7z
	 M15.26,5.91c0.13-0.02,0.21-0.03,0.33-0.04C15.42,5.77,15.42,5.77,15.26,5.91z M101.78,29.47c0.16,0.1,0.16,0.1,0.34-0.02
	C101.97,29.45,101.87,29.46,101.78,29.47z M101.4,3.51c0.01,0.03,0.01,0.05,0.02,0.08c0.11,0.04,0.2,0.02,0.27-0.05
	c-0.01-0.02-0.01-0.04-0.02-0.07C101.58,3.48,101.49,3.49,101.4,3.51z M25.34,6.62c-0.01,0.09-0.02,0.12-0.02,0.15
	c0.01,0.05,0.02,0.09,0.04,0.14c0,0,0.05,0.01,0.06,0c0.02-0.05,0.05-0.1,0.04-0.14C25.46,6.73,25.41,6.7,25.34,6.62z M90.84,4.7
	c0.03,0.02,0.05,0.04,0.08,0.06c0.05-0.09,0.18-0.12,0.21-0.25C91.02,4.58,90.93,4.64,90.84,4.7z M18.26,6.38
	c0.01,0.02,0.03,0.04,0.04,0.06c0.07-0.03,0.14-0.06,0.25-0.11C18.37,6.25,18.31,6.31,18.26,6.38z M105.99,9.26
	c-0.06-0.09-0.1-0.16-0.18-0.27C105.8,9.14,105.74,9.25,105.99,9.26z M118.58,26.88c0,0.02,0,0.04,0,0.05c0.11,0,0.21,0,0.32,0
	c0-0.02,0-0.04,0-0.05C118.79,26.88,118.68,26.88,118.58,26.88z M131.54,20.64c0.07,0.03,0.14,0.09,0.21,0
	c0.01-0.02,0-0.06-0.02-0.07C131.64,20.51,131.57,20.52,131.54,20.64z M39.65,5.76c0.14,0.13,0.22,0.09,0.28-0.07
	C39.82,5.72,39.73,5.74,39.65,5.76z M60.71,5.23c0.02,0.03,0.03,0.06,0.05,0.09c0.06-0.02,0.12-0.05,0.18-0.07
	c-0.02-0.03-0.05-0.08-0.06-0.08C60.82,5.18,60.76,5.21,60.71,5.23z M98.25,10.69c0.12,0.05,0.21,0.09,0.32-0.03
	C98.46,10.66,98.38,10.54,98.25,10.69z M57.37,5.32c-0.08-0.06-0.12-0.09-0.17-0.13c-0.04,0.07-0.08,0.13-0.13,0.23
	C57.18,5.38,57.25,5.36,57.37,5.32z M124.61,24.88c0.16,0.11,0.25,0.11,0.4,0C124.86,24.88,124.77,24.88,124.61,24.88z M80.02,5.84
	c-0.09-0.11-0.18-0.11-0.28,0.02C79.86,5.85,79.94,5.85,80.02,5.84z M124.1,10.24c0.02,0.02,0.04,0.05,0.06,0.07
	c0.08-0.04,0.15-0.09,0.23-0.13c-0.02-0.02-0.03-0.04-0.05-0.06C124.26,10.16,124.18,10.2,124.1,10.24z M49.88,7.85
	c0.1,0.13,0.18,0.13,0.34,0.02C50.08,7.86,49.99,7.86,49.88,7.85z M31.22,7.69c0.15-0.05,0.11-0.12,0.06-0.2
	C31.26,7.56,31.24,7.63,31.22,7.69z M74.37,3.95c0.16,0.06,0.16,0.06,0.3-0.07C74.53,3.92,74.45,3.94,74.37,3.95z M131.22,19.8
	c-0.11-0.02-0.16-0.04-0.2-0.04c-0.03,0-0.06,0.03-0.13,0.07c0.07,0.02,0.11,0.05,0.14,0.05C131.07,19.87,131.12,19.84,131.22,19.8z
	 M129.79,20.08c-0.11-0.14-0.19-0.12-0.3,0C129.61,20.08,129.69,20.08,129.79,20.08z M74.05,7.3c0.04-0.04,0.09-0.07,0.09-0.09
	c-0.02-0.04-0.06-0.07-0.09-0.1c-0.03,0.02-0.08,0.05-0.08,0.07C73.97,7.22,74.01,7.25,74.05,7.3z M119.37,8.04
	c0.01-0.02,0.03-0.04,0.04-0.06c-0.07-0.05-0.13-0.14-0.27,0C119.22,8,119.3,8.02,119.37,8.04z M53.47,8.02c0,0.03,0,0.06-0.01,0.09
	c0.08,0,0.16,0,0.24,0c0-0.02,0-0.04,0.01-0.06C53.63,8.03,53.55,8.03,53.47,8.02z M20.07,6.99c0-0.02-0.01-0.04-0.01-0.06
	c-0.1,0.01-0.2,0.03-0.3,0.04c0,0.02,0.01,0.05,0.01,0.07C19.87,7.03,19.97,7.01,20.07,6.99z M121.31,8.81
	c-0.01-0.02-0.02-0.03-0.03-0.05c-0.07,0.03-0.13,0.06-0.2,0.09c0.01,0.02,0.02,0.03,0.03,0.05C121.18,8.87,121.24,8.84,121.31,8.81
	z M31.52,6.33c-0.18-0.05-0.18-0.05-0.29,0.15C31.35,6.42,31.42,6.38,31.52,6.33z M37.61,6.32c0-0.02,0-0.04,0-0.06
	c-0.04-0.01-0.07-0.03-0.11-0.03c-0.04,0-0.08,0.02-0.12,0.03c0,0.02,0.01,0.03,0.01,0.05C37.47,6.31,37.54,6.31,37.61,6.32z
	 M82.53,4.82c-0.01-0.02-0.03-0.04-0.04-0.06c-0.05,0.02-0.11,0.05-0.16,0.07c0,0,0.02,0.04,0.04,0.07
	C82.42,4.87,82.47,4.85,82.53,4.82z M73.89,9.14c-0.01-0.02-0.01-0.04-0.02-0.07c-0.09,0-0.2-0.04-0.26,0.14
	C73.73,9.18,73.81,9.16,73.89,9.14z M88.92,9.68c-0.01-0.03-0.01-0.06-0.02-0.1c-0.08,0.02-0.15,0.03-0.23,0.05
	c0,0.02,0.01,0.05,0.01,0.07C88.76,9.69,88.84,9.69,88.92,9.68z M31.6,4.84c0.01,0.09,0.01,0.15,0.02,0.26
	C31.74,4.92,31.74,4.92,31.6,4.84z M89.55,5.01c0.05-0.05,0.09-0.08,0.1-0.12c0.01-0.01-0.06-0.07-0.07-0.06
	c-0.04,0.02-0.08,0.04-0.1,0.08C89.47,4.92,89.51,4.96,89.55,5.01z M90.31,9.86c0.04,0.14,0.12,0.12,0.2,0.09
	c0.01,0,0.02-0.03,0.04-0.08C90.47,9.87,90.4,9.87,90.31,9.86z M104.29,10.09c0.03-0.02,0.06-0.03,0.09-0.05
	c0.02-0.03,0.07-0.07,0.06-0.08c-0.03-0.03-0.07-0.06-0.12-0.07c-0.02,0-0.08,0.04-0.08,0.07
	C104.25,10.01,104.28,10.05,104.29,10.09z M89.85,10.15c0.02,0.02,0.04,0.04,0.06,0.07c0.07-0.04,0.14-0.08,0.21-0.13
	c-0.01-0.02-0.03-0.04-0.04-0.05C90,10.08,89.93,10.12,89.85,10.15z M120.89,10.16c-0.01-0.02-0.02-0.05-0.03-0.07
	c-0.08,0.02-0.16,0.05-0.24,0.07c0.01,0.02,0.02,0.04,0.02,0.06C120.73,10.2,120.81,10.18,120.89,10.16z M91.9,7.56
	c-0.02-0.02-0.04-0.03-0.06-0.05c-0.07,0.03-0.17,0.06-0.11,0.21C91.81,7.65,91.85,7.6,91.9,7.56z M64.15,5.55
	c0,0.02,0.01,0.03,0.01,0.05c0.04,0,0.09,0.02,0.11,0.01c0.04-0.01,0.06-0.05,0.09-0.08c-0.01-0.01-0.02-0.03-0.04-0.04
	C64.27,5.5,64.21,5.53,64.15,5.55z M67.61,5.26c-0.05-0.04-0.09-0.08-0.11-0.07c-0.04,0.01-0.08,0.04-0.12,0.07
	c0.02,0.02,0.05,0.07,0.07,0.07C67.5,5.32,67.54,5.29,67.61,5.26z M106.03,10.79c0-0.03,0-0.06,0.01-0.1
	c-0.06,0-0.12,0.01-0.18,0.01c0,0,0,0.05,0,0.05C105.91,10.77,105.97,10.78,106.03,10.79z M94.12,9.03
	c-0.01-0.02-0.02-0.04-0.03-0.06C94.03,8.99,93.97,9,93.91,9.02c0.01,0.02,0.02,0.05,0.03,0.07C94,9.07,94.06,9.05,94.12,9.03z
	 M68.96,5.65c0.09,0.09,0.17,0.11,0.25-0.01C69.13,5.64,69.04,5.65,68.96,5.65z M31.72,5.88c0.05,0.17,0.13,0.17,0.28,0.14
	C31.9,5.97,31.83,5.94,31.72,5.88z M59.06,4.68c0.01,0.02,0.02,0.05,0.03,0.07c0.06-0.03,0.13-0.05,0.19-0.08
	c-0.01-0.02-0.01-0.03-0.02-0.05C59.19,4.64,59.13,4.66,59.06,4.68z M90.77,8.22c0,0.02,0,0.04,0.01,0.06
	c0.06,0,0.11-0.01,0.17-0.01c0-0.02,0-0.03,0-0.05C90.88,8.22,90.83,8.22,90.77,8.22z M101.79,3.44c0.13,0.03,0.21,0.04,0.26-0.07
	C101.93,3.27,101.88,3.34,101.79,3.44z M111.32,3.78c0.01,0.02,0.02,0.05,0.03,0.07c0.09,0.01,0.17,0.01,0.23-0.13
	C111.46,3.75,111.39,3.77,111.32,3.78z M4.94,28.19c0-0.02,0-0.04,0-0.06c-0.06-0.01-0.12-0.02-0.19-0.03
	c0,0.02-0.01,0.04-0.01,0.05C4.82,28.17,4.88,28.18,4.94,28.19z M70.17,3.65c0.01,0.02,0.01,0.03,0.02,0.05c0.04,0,0.1,0.02,0.12,0
	c0.03-0.02,0.04-0.07,0.08-0.16C70.27,3.6,70.22,3.62,70.17,3.65z M72.88,7.2c0-0.02,0-0.04,0-0.05c-0.06,0-0.12,0-0.18,0
	c0,0.02,0,0.04,0,0.05C72.76,7.2,72.82,7.2,72.88,7.2z M117.5,4.17c-0.07-0.05-0.12-0.09-0.19-0.13
	C117.28,4.17,117.31,4.23,117.5,4.17z M43.74,7.58c0-0.02,0-0.03,0-0.05c-0.07,0-0.13,0-0.2,0c0,0.01,0,0.03,0,0.04
	C43.6,7.58,43.67,7.58,43.74,7.58z M123.76,7.84c0,0.02,0,0.04-0.01,0.06c0.04,0.01,0.08,0.02,0.12,0.02c0.04,0,0.08-0.02,0.11-0.04
	c0-0.01-0.01-0.02-0.01-0.04C123.9,7.84,123.83,7.84,123.76,7.84z M69.34,7.94C69.2,7.89,69.1,7.91,69.1,8.07
	C69.2,8.02,69.27,7.98,69.34,7.94z M9.71,8.11c0.01,0.02,0.01,0.03,0.02,0.05c0.06-0.02,0.11-0.03,0.17-0.05
	C9.89,8.09,9.88,8.08,9.88,8.06C9.82,8.08,9.76,8.09,9.71,8.11z M27.5,4.24c-0.03,0.14,0,0.2,0.18,0.16
	C27.62,4.34,27.57,4.3,27.5,4.24z M96.21,6.8c-0.02-0.01-0.05-0.01-0.07-0.02c-0.02,0.02-0.04,0.04-0.05,0.06
	c-0.01,0.03,0,0.06,0,0.1c0.02,0,0.04,0.01,0.06,0.01C96.17,6.9,96.19,6.85,96.21,6.8z M104.94,6.53c0.01,0.02,0.02,0.04,0.02,0.06
	c0.07-0.02,0.14-0.04,0.21-0.06c-0.01-0.02-0.01-0.03-0.02-0.05C105.08,6.5,105.01,6.52,104.94,6.53z M105,8.27
	c0,0.02,0.01,0.03,0.01,0.05c0.07-0.01,0.14-0.03,0.21-0.04c0-0.01-0.01-0.03-0.01-0.04C105.14,8.25,105.07,8.26,105,8.27z
	 M112.06,8.71c0.04-0.02,0.06-0.03,0.09-0.05c-0.02-0.03-0.04-0.06-0.07-0.08c-0.01-0.01-0.07,0.02-0.07,0.03
	C112.02,8.65,112.04,8.67,112.06,8.71z M98.18,8.66c-0.01,0.02-0.02,0.05-0.04,0.07c0.06,0.02,0.12,0.04,0.18,0.06
	c0.01-0.02,0.02-0.04,0.03-0.06C98.3,8.71,98.24,8.69,98.18,8.66z M96.43,8.96c-0.02-0.02-0.03-0.04-0.05-0.05
	c-0.05,0.03-0.1,0.06-0.14,0.09c0.01,0.01,0.02,0.03,0.03,0.04C96.33,9.01,96.38,8.99,96.43,8.96z M13.28,12.04
	c0-0.02-0.01-0.05-0.01-0.07c-0.05,0.01-0.1,0.01-0.15,0.02c0,0,0,0.03,0,0.05C13.17,12.04,13.22,12.04,13.28,12.04z M94.95,9.41
	c-0.01-0.01-0.01-0.03-0.02-0.04c-0.05,0.01-0.09,0.01-0.14,0.02c0.01,0.02,0.02,0.04,0.03,0.06C94.87,9.44,94.91,9.42,94.95,9.41z
	 M122.88,26.08c0.08,0.09,0.08,0.09,0.19,0.02C123,26.1,122.94,26.09,122.88,26.08z M24.69,9.48c-0.04-0.03-0.07-0.05-0.1-0.06
	c-0.02,0-0.04,0.03-0.06,0.04c0.03,0.02,0.05,0.05,0.08,0.07C24.61,9.54,24.64,9.51,24.69,9.48z M92.92,9.48
	c-0.01-0.02-0.02-0.03-0.02-0.05c-0.05,0.02-0.11,0.04-0.16,0.06c0.01,0.01,0.01,0.02,0.02,0.03C92.81,9.51,92.86,9.49,92.92,9.48z
	 M75.79,5.11c0,0.01,0,0.01,0,0.02c0.04,0,0.08,0.01,0.12,0.01c0.03,0,0.05-0.01,0.08-0.01c0-0.01-0.01-0.02-0.01-0.03
	C75.91,5.1,75.85,5.1,75.79,5.11z M70.21,5.44c0.01,0.02,0.01,0.03,0.02,0.05c0.06-0.01,0.13-0.02,0.19-0.04
	c-0.01-0.02-0.01-0.04-0.02-0.06C70.33,5.41,70.27,5.42,70.21,5.44z M73.24,10.13c0-0.01,0-0.03,0.01-0.04
	c-0.04,0-0.08-0.01-0.13-0.01c0,0-0.01,0.03-0.01,0.04C73.16,10.12,73.2,10.13,73.24,10.13z M109.16,10.22
	c0,0.02,0.01,0.04,0.01,0.06c0.07-0.01,0.14-0.02,0.21-0.04c0-0.01-0.01-0.03-0.01-0.04C109.3,10.21,109.23,10.21,109.16,10.22z"/>
</svg>
